 <!DOCTYPE svg PUBLIC "-//W3C//DTD SVG 1.1//EN" "http://www.w3.org/Graphics/SVG/1.1/DTD/svg11.dtd">
<svg id="a1c6a2ac-4220-4ac7-974e-d0d9579425a8" data-name="Layer 1" xmlns="http://www.w3.org/2000/svg" width="865.76" height="682.89" viewBox="0 0 865.76 682.89">
<defs>
<style xmlns="http://www.w3.org/1999/xhtml">*, ::after, ::before { box-sizing: border-box; }
img, svg { vertical-align: middle; }
</style>
<style xmlns="http://www.w3.org/1999/xhtml">*, body, html { -webkit-font-smoothing: antialiased; }
img, svg { max-width: 100%; }
</style>
</defs>
<g id="fdce9a4c-57bb-40f5-b8f1-dfec4533047f" data-name="freepik--background-complete--inject-289">
<path d="M43.22,499.11a38.74,38.74,0,0,0-16.66-5.74c-2.72-.28-5.7-.2-7.88,1.45a1.63,1.63,0,0,0-.81,1.44,1.72,1.72,0,0,0,.78,1,23.82,23.82,0,0,0,24.57,1.87" fill="#e0e0e0"/>
<path d="M42.8,498.62A80.78,80.78,0,0,1,32,489.15a27.08,27.08,0,0,1-6.75-12.47,5,5,0,0,1,.54-4.18c8.58,6.71,15.29,15.34,17,26.12" fill="#e0e0e0"/>
<path d="M43.14,499a38.74,38.74,0,0,1,.2-14.12,19.13,19.13,0,0,1,7.52-11.66c1.48,3.46.85,7.46-.19,11.07A54.23,54.23,0,0,1,43.2,500" fill="#e0e0e0"/>
<path d="M51.54,514.1c-5.1.63-9.58,3.32-13.36,6.77A25.23,25.23,0,0,0,30.54,534c5-.31,9.26-3.84,12.33-7.79s5.22-8.31,8.61-12" fill="#e0e0e0"/>
<path d="M53.37,516.57a33,33,0,0,1,3.81-31.12c2.91,10.34,1.84,22-3.81,31.12" fill="#e0e0e0"/>
<path d="M64.48,529.74a23.79,23.79,0,0,0-22.74,13.1c-.29.58-.54,1.3-.16,1.8a1.71,1.71,0,0,0,1.51.44c4.49-.28,8.47-3,11.75-6.07s6.14-6.63,9.78-9.28" fill="#e0e0e0"/>
<path d="M64.13,529a42.49,42.49,0,0,1-.43-23.71c.84-3.05,2.24-6.26,5.06-7.7a.78.78,0,0,1,1.26.43,14.32,14.32,0,0,1,1.2,6.8,43.43,43.43,0,0,1-1.07,6.9c-.88,4.2-1.36,8.72-3.67,12.35a25.15,25.15,0,0,0-1.43,2.72c-.44.92-.44,1.19-.83,2" fill="#e0e0e0"/>
<path d="M93.54,533.41c-2.18-8.29.13-18.34,5.35-25.13a2,2,0,0,1,1.52-1c1,.1,1.2,1.38,1.2,2.4a45.57,45.57,0,0,1-8,23.77" fill="#e0e0e0"/>
<path d="M96.18,535.22a36.53,36.53,0,0,0,30-6.11,24.23,24.23,0,0,0-16.23-2c-5.43,1.19-10.39,3.67-13.76,8.09" fill="#e0e0e0"/>
<path d="M98.43,529.74c5.63-9.2,16.44-15.2,27.21-15.74-1.19,4.38-4.78,7.78-8.9,9.84s-8.6,2.95-13.06,3.83c-1.75.33-4.13.7-5.25,2.07" fill="#e0e0e0"/>
<path d="M94.09,502.92A78.89,78.89,0,0,0,97.58,487,26.53,26.53,0,0,0,94.4,471.2c-5.26,10.2-5.8,22.11-.46,32.32" fill="#e0e0e0"/>
<path d="M111.83,494c6.17-11.19,18.73-20.15,31.45-21.39C138.37,484.78,125,494.22,111.83,494" fill="#e0e0e0"/>
<path d="M108,496.15c9.2,1.4,17,7.27,25.61,10.83a11.35,11.35,0,0,0,5.79,1.1,4.52,4.52,0,0,0,2.84-8,12.09,12.09,0,0,0-4.22-2.55c-9.34-3.91-19.38-4-29.23-1.64" fill="#e0e0e0"/>
<path d="M102.64,502.6c2.08.59,2.79,1.67,4.44,3.08a48,48,0,0,0,19.41,10c.75.18,1.72.25,2.09-.42s-.09-1.29-.51-1.81a26.64,26.64,0,0,0-11.71-8c-4.49-1.67-8.38-3.68-13.72-3.25" fill="#e0e0e0"/>
<path d="M96.64,463.68a36.72,36.72,0,0,0,28.17,9.57,1.9,1.9,0,0,0,1.28-.47c.72-.76-.15-2-1-2.59-8.27-6.47-18.3-9.14-28.48-6.53" fill="#e0e0e0"/>
<path d="M103.75,461.08a39.26,39.26,0,0,1,35.16-5.81,27.84,27.84,0,0,1-16.76,7.35,53.08,53.08,0,0,1-18.4-1.54" fill="#e0e0e0"/>
<path d="M101,443.2c-.81-8.28-.28-14.8-.86-23.11,0-.65-.19-1.46-.8-1.7-.87-.33-1.59.73-1.87,1.62A26.41,26.41,0,0,0,101,443" fill="#e0e0e0"/>
<path d="M100.33,444.11A48.64,48.64,0,0,0,114,430.79c2.71-3.69,5-8.12,4.37-12.67a13.12,13.12,0,0,0-9.87,4.91,27.41,27.41,0,0,0-5,10.12c-1.1,3.59-1.87,7.38-3.16,11" fill="#e0e0e0"/>
<path d="M113.78,440.37a110.2,110.2,0,0,0,33.7-19.87c-4-1.63-8.63-.66-12.65,1a39.84,39.84,0,0,0-21.21,18.8" fill="#e0e0e0"/>
<path d="M104.11,448.63c6.23.67,12.55,1.11,18.72.08s11.79-3.41,17.47-5.8a2,2,0,0,0,1.19-.9,1.35,1.35,0,0,0-.43-1.5,3.53,3.53,0,0,0-1.48-.69c-6.17-1.72-12.81-.92-18.88,1.13a87.51,87.51,0,0,0-16.58,7.68" fill="#e0e0e0"/>
<path d="M68.64,464c-4.24-8.57-4-18.56-.29-27.4,2.57,3.94,2.89,8.95,2.39,13.63s-1.89,9.49-2,14.19" fill="#e0e0e0"/>
<path d="M51.65,455.4a38.24,38.24,0,0,0-28.4,12.09,26.54,26.54,0,0,0,15.57-2.88,78.8,78.8,0,0,0,13.32-8.92" fill="#e0e0e0"/>
<path d="M40.24,451.6c-5.18-.42-10.16-1.07-15.15.47a18.15,18.15,0,0,0-11.51,9.79,27.45,27.45,0,0,0,14.21-2.68,81.92,81.92,0,0,0,12.5-7.58" fill="#e0e0e0"/>
<path d="M57.12,451.77c-4.66-3.06-9.45-6.17-14.88-7.43S30.52,444,26.68,448.1c4.4,2.58,9.73,2.89,14.83,2.88s11.35-.06,16.15,1.64" fill="#e0e0e0"/>
<path d="M57.15,452c-8-7.83-11-21.9-7.79-32.6A49.64,49.64,0,0,1,57.15,452" fill="#e0e0e0"/>
<path d="M79.07,429.84c1.51-3.5,2.56-7.18,3.91-10.78a30.81,30.81,0,0,1,5.57-9.87,14.74,14.74,0,0,1,9.88-5.12,39.79,39.79,0,0,1-19.16,25.78" fill="#e0e0e0"/>
<path d="M75.11,434.46c-2.49-3.43-5.36-8.07-8.74-10.63s-7.77-4.11-11.89-3.13a27.67,27.67,0,0,0,20.63,13.76" fill="#e0e0e0"/>
<path d="M75.9,430.12A59,59,0,0,1,72,417.39a19.85,19.85,0,0,1,2-12.95c4.37,8.27,5.78,17.15,2.15,25.78" fill="#e0e0e0"/>
<path d="M79.11,404.44c2.47-8.2,10-14.25,18.09-17a6.79,6.79,0,0,1,3.18-.48,2.74,2.74,0,0,1,2.33,1.95c.3,1.4-.85,2.65-1.94,3.59a61.45,61.45,0,0,1-21.66,12" fill="#e0e0e0"/>
<path d="M79.2,397.73c.31-5.29.65-10.65,2.4-15.66s5-9.71,9.79-11.9c.81,5.34-1.55,10.65-4.38,15.25s-6.26,8.93-8,14.05" fill="#e0e0e0"/>
<path d="M79.07,401.37c-2-6-2.26-13.57-5.84-18.78-2.5-3.59-6.51-6.11-8.67-10A15.27,15.27,0,0,0,65.05,384a33.27,33.27,0,0,0,6.63,9.48c2.65,2.82,4.91,4.95,7.38,7.94" fill="#e0e0e0"/>
<path d="M79.11,577.36c-.16,0-.3-39.85-.3-89s.1-89,.26-89,.3,39.86.31,89S79.27,577.36,79.11,577.36Z" fill="#e0e0e0"/>
<path d="M114,457.92a8.71,8.71,0,0,1-1.5.56l-4.13,1.39c-3.48,1.2-8.25,2.91-13.44,5s-10,4-12.73,6.38a9.55,9.55,0,0,0-2.57,3.4c-.39.93-.46,1.5-.51,1.49s0-.14,0-.4a6.2,6.2,0,0,1,.3-1.2A8.92,8.92,0,0,1,81.86,471a22.46,22.46,0,0,1,5.53-3.44c2.21-1,4.66-2.1,7.26-3.17,5.2-2.13,10-3.79,13.54-4.88,1.75-.55,3.19-.95,4.18-1.2A8.44,8.44,0,0,1,114,457.92Z" fill="#e0e0e0"/>
<path d="M125.37,429.9a2.49,2.49,0,0,1-.42.44l-1.24,1.24-4.79,4.34L103,450c-6.2,5.53-11.57,10.77-15.29,14.78-1.85,2-3.33,3.59-4.32,4.79l-1.2,1.32c-.26.3-.4.45-.43.44a3.07,3.07,0,0,1,.35-.51c.24-.33.59-.81,1.07-1.39.95-1.2,2.39-2.89,4.2-4.91a202,202,0,0,1,15.2-14.93c6.22-5.51,11.9-10.46,16-14l4.9-4.21,1.35-1.11C125.19,430,125.36,429.87,125.37,429.9Z" fill="#e0e0e0"/>
<path d="M96.29,455.66c-.15-.08,1.2-3.07,2.4-6.86s1.91-7,2.08-6.95A23.05,23.05,0,0,1,99.24,449a48.29,48.29,0,0,1-1.94,4.78A7.49,7.49,0,0,1,96.29,455.66Z" fill="#e0e0e0"/>
<path d="M79.14,479.79a8,8,0,0,1-1-1.12c-.64-.83-1.46-1.89-2.39-3.13-2.06-2.67-4.91-6.33-8.09-10.36s-6.12-7.62-8.25-10.23l-2.5-3.1a6.74,6.74,0,0,1-.86-1.2,7.16,7.16,0,0,1,1,1c.64.7,1.54,1.71,2.64,3,2.21,2.55,5.2,6.12,8.38,10.14s6,7.73,8,10.46c1,1.37,1.77,2.48,2.31,3.26A6.16,6.16,0,0,1,79.14,479.79Z" fill="#e0e0e0"/>
<path d="M71.51,470a13.76,13.76,0,0,1-3.2-6,17.22,17.22,0,0,1-.73-6.05h.25c-.11.46-.19.71-.24.7s0-.27,0-.75h.26a27.12,27.12,0,0,0,1,5.88A43.4,43.4,0,0,0,71.51,470Z" fill="#e0e0e0"/>
<path d="M61.64,457.57a10.76,10.76,0,0,0-2.22-1.3,15.2,15.2,0,0,0-6.22-.49,38.81,38.81,0,0,0-6.24,1,17.49,17.49,0,0,1-2.57.62,8.59,8.59,0,0,1,2.4-1,28.23,28.23,0,0,1,6.32-1.2,13.37,13.37,0,0,1,6.39.7A3.87,3.87,0,0,1,61.64,457.57Z" fill="#e0e0e0"/>
<path d="M59.31,454.57c0,.08-1.31-.53-3.43-1.2a34.43,34.43,0,0,0-17.24-1.32c-2.22.4-3.59.81-3.59.71a3.38,3.38,0,0,1,.9-.38,19.55,19.55,0,0,1,2.59-.73A30.51,30.51,0,0,1,56,453a19.12,19.12,0,0,1,2.39,1.1A3.26,3.26,0,0,1,59.31,454.57Z" fill="#e0e0e0"/>
<path d="M79.07,441.85a72.18,72.18,0,0,1-2.5-8.67,75.59,75.59,0,0,1-1.94-8.78,68.68,68.68,0,0,1,2.5,8.67A71.27,71.27,0,0,1,79.07,441.85Z" fill="#e0e0e0"/>
<path d="M79.23,441.85a39.75,39.75,0,0,0-2.77-5.19,22.8,22.8,0,0,0-4.07-4.2,3.73,3.73,0,0,1,1.57.8,12.72,12.72,0,0,1,3,3.11A11.56,11.56,0,0,1,79.23,441.85Z" fill="#e0e0e0"/>
<path d="M79.11,556.07s-.18-1-.63-2.66a36.67,36.67,0,0,0-2.65-6.84c-2.76-5.64-7.77-12.78-14.14-19.92-3.15-3.59-6.21-7-8.81-10.27a72.21,72.21,0,0,1-6.31-9.09,43.77,43.77,0,0,1-3.18-6.75c-.29-.82-.5-1.48-.62-1.92a3.4,3.4,0,0,1-.17-.7c.06,0,.35.92,1,2.54a49.44,49.44,0,0,0,3.32,6.63,79.15,79.15,0,0,0,6.37,9c2.61,3.22,5.67,6.59,8.84,10.21,6.38,7.18,11.39,14.36,14.07,20.12a34.36,34.36,0,0,1,2.51,7,19.46,19.46,0,0,1,.35,2A2.94,2.94,0,0,1,79.11,556.07Z" fill="#e0e0e0"/>
<path d="M110.54,520.56a12.53,12.53,0,0,1-1.64.92,37,37,0,0,0-4.29,2.83A48.69,48.69,0,0,0,99,529.44c-2,2.08-4,4.5-6.08,7.1-4.15,5.2-8,9.8-10.35,13.47-1.2,1.84-2,3.37-2.6,4.44a12.82,12.82,0,0,1-.91,1.67,2,2,0,0,1,.15-.47c.12-.3.29-.74.55-1.29a43,43,0,0,1,2.4-4.56A149,149,0,0,1,92.4,536.18c2.09-2.6,4.15-5,6.15-7.11a48,48,0,0,1,5.76-5.09,31.22,31.22,0,0,1,4.42-2.69c.55-.28,1-.45,1.29-.58S110.54,520.53,110.54,520.56Z" fill="#e0e0e0"/>
<path d="M111.21,532.13a24.11,24.11,0,0,1-3.48.5,45.77,45.77,0,0,0-8.28,1.63,24.66,24.66,0,0,0-7.4,3.86,23,23,0,0,0-2.6,2.39,2.51,2.51,0,0,1,.52-.8,13.34,13.34,0,0,1,1.81-1.87,22.92,22.92,0,0,1,7.5-4.12,37.11,37.11,0,0,1,8.37-1.48A18.41,18.41,0,0,1,111.21,532.13Z" fill="#e0e0e0"/>
<path d="M90.47,539.19c-.18-.1,1.4-2.5,2.6-5.73s1.42-6.12,1.63-6.12a5.87,5.87,0,0,1,0,1.87,20.89,20.89,0,0,1-1,4.41,21.22,21.22,0,0,1-2,4A5.39,5.39,0,0,1,90.47,539.19Z" fill="#e0e0e0"/>
<path d="M120.78,489.59a2.22,2.22,0,0,1-.55.29l-1.64.75c-.71.3-1.59.7-2.57,1.2s-2.13,1-3.33,1.75l-1.9,1.09c-.66.38-1.32.82-2,1.25-1.4.86-2.81,1.91-4.31,3a83.4,83.4,0,0,0-9,7.91,81.25,81.25,0,0,0-7.6,9.27c-1,1.53-2,3-2.81,4.4-.42.71-.84,1.38-1.2,2s-.69,1.32-1,1.94c-.68,1.2-1.19,2.39-1.64,3.39s-.84,1.88-1.12,2.61l-.67,1.67a2.62,2.62,0,0,1-.29.58,3.91,3.91,0,0,1,.17-.61l.6-1.72a25.1,25.1,0,0,1,1-2.65c.44-1,.91-2.21,1.55-3.44l1-2c.34-.69.76-1.36,1.19-2.07.79-1.47,1.79-2.93,2.8-4.48a78.53,78.53,0,0,1,7.62-9.35,76.25,76.25,0,0,1,9.09-7.94c1.52-1.06,3-2.1,4.37-2.94.7-.43,1.37-.87,2-1.2l1.93-1c1.19-.71,2.39-1.2,3.38-1.69s1.89-.85,2.62-1.2l1.69-.64A2.26,2.26,0,0,1,120.78,489.59Z" fill="#e0e0e0"/>
<path d="M95.88,506.28a4,4,0,0,1,1.36-2,8.68,8.68,0,0,1,5.52-2.12,15.13,15.13,0,0,1,5.82,1.14,8.09,8.09,0,0,1,2.19,1.07,14.3,14.3,0,0,1-2.4-.69,17.53,17.53,0,0,0-5.65-.94,9.1,9.1,0,0,0-5.22,1.9A15.11,15.11,0,0,0,95.88,506.28Z" fill="#e0e0e0"/>
<path d="M92.15,510.12a20.75,20.75,0,0,0,1.56-5.1,20.31,20.31,0,0,0-.35-5.33,3.48,3.48,0,0,1,.65,1.5,10.25,10.25,0,0,1,.27,3.9,10.5,10.5,0,0,1-1.19,3.74C92.58,509.71,92.2,510.17,92.15,510.12Z" fill="#e0e0e0"/>
<path d="M51.58,561.83c.86,15.24,5.44,30.72,12.5,46.39H94.8c6.73-15.56,11-31,11.76-46.39Z" fill="#e0e0e0"/>
<path d="M101.59,586.49c0,.15-10.12.28-22.58.28s-22.59-.13-22.59-.28,10.12-.29,22.59-.29S101.59,586.32,101.59,586.49Z" fill="#fafafa"/>
<path d="M101,592c0,.16-9.48.29-21.17.29s-21.16-.13-21.16-.29,9.46-.29,21.16-.29S101,591.85,101,592Z" fill="#fafafa"/>
<path d="M64.59,571.83a88,88,0,0,1,0,14.15A85.71,85.71,0,0,1,64.59,571.83Z" fill="#fafafa"/>
<path d="M81,571.83a92,92,0,0,1,0,14.66A94.4,94.4,0,0,1,81,571.83Z" fill="#fafafa"/>
<path d="M96.49,571.7a98.17,98.17,0,0,1,0,14.95A95.66,95.66,0,0,1,96.49,571.7Z" fill="#fafafa"/>
<path d="M105.6,571.83c0,.16-11.87.29-26.49.29s-26.49-.13-26.49-.29,11.86-.28,26.49-.28S105.6,571.63,105.6,571.83Z" fill="#fafafa"/>
<rect x="45.35" y="81.58" width="92" height="133.34" fill="#e0e0e0"/>
<rect x="40.74" y="81.58" width="92" height="133.34" fill="#f5f5f5"/>
<rect x="52.17" y="96.01" width="69.14" height="104.46" fill="#fff"/>
<path d="M121.31,200.47v-7.72c0-5,0-12.3-.07-21.54,0-18.43-.06-44.51-.11-75.22l.23.23H52.23l.26-.26V200.42l-.21-.2,50.27.11h.06l-50.45.11H52V95.52h69.62v.23c0,30.77-.09,56.91-.11,75.41v28.61A1.92,1.92,0,0,1,121.31,200.47Z" fill="#e0e0e0"/>
<path d="M133,81.58A17.74,17.74,0,0,1,131.37,84c-1.08,1.42-2.59,3.36-4.32,5.47s-3.36,4-4.55,5.29a15.2,15.2,0,0,1-2,2.06,18.67,18.67,0,0,1,1.76-2.3l4.43-5.37,4.42-5.38A16.46,16.46,0,0,1,133,81.58Z" fill="#e0e0e0"/>
<path d="M121.67,200.14a85.06,85.06,0,0,0,12,15.08" fill="#fff"/>
<path d="M133.72,215.22a14.16,14.16,0,0,1-2.1-1.92,64.49,64.49,0,0,1-4.55-5.12,66.62,66.62,0,0,1-4-5.58,12.48,12.48,0,0,1-1.4-2.46,21.9,21.9,0,0,1,1.69,2.27c1,1.43,2.39,3.36,4.1,5.45s3.25,3.9,4.42,5.2A21,21,0,0,1,133.72,215.22Z" fill="#e0e0e0"/>
<path d="M40.73,214.81,52.78,200" fill="#fff"/>
<path d="M52.78,200A92.87,92.87,0,0,1,47,207.53a90.21,90.21,0,0,1-6.23,7.28,93.14,93.14,0,0,1,5.83-7.59A89.66,89.66,0,0,1,52.78,200Z" fill="#e0e0e0"/>
<path d="M40.74,81.58a80,80,0,0,1,5.86,7,82.4,82.4,0,0,1,5.45,7.3,88.71,88.71,0,0,1-5.85-7A86.09,86.09,0,0,1,40.74,81.58Z" fill="#e0e0e0"/>
<rect x="76.63" y="117.22" width="23.15" height="65.73" fill="#e0e0e0"/>
<rect x="396.38" y="81.58" width="92" height="133.34" fill="#e0e0e0"/>
<rect x="391.77" y="81.58" width="92" height="133.34" fill="#f5f5f5"/>
<rect x="403.19" y="96.01" width="69.14" height="104.46" fill="#fff"/>
<path d="M472.33,200.47V171.21c0-18.43-.08-44.51-.12-75.22l.22.23H403.31l.25-.26V200.42l-.2-.2,50.33.11h.15l-50.45.11h-.19V95.52h69.63v.23c0,30.77-.09,56.91-.11,75.41,0,9.19,0,16.47-.06,21.46v7.15A1.29,1.29,0,0,1,472.33,200.47Z" fill="#e0e0e0"/>
<path d="M484,81.58A17.74,17.74,0,0,1,482.36,84c-1.07,1.42-2.59,3.36-4.32,5.47s-3.36,4-4.55,5.29a15.2,15.2,0,0,1-2,2.06,19.82,19.82,0,0,1,1.76-2.31c1.2-1.5,2.76-3.33,4.43-5.38l4.43-5.37A17,17,0,0,1,484,81.58Z" fill="#e0e0e0"/>
<path d="M472.68,200.14a85.84,85.84,0,0,0,12.06,15.08" fill="#fff"/>
<path d="M484.74,215.22a14.16,14.16,0,0,1-2.1-1.92,63.12,63.12,0,0,1-4.54-5.12,62.45,62.45,0,0,1-4-5.58,13.05,13.05,0,0,1-1.41-2.46,17.83,17.83,0,0,1,1.69,2.27c1,1.43,2.4,3.36,4.11,5.45s3.25,3.9,4.42,5.2A22.31,22.31,0,0,1,484.74,215.22Z" fill="#e0e0e0"/>
<path d="M391.75,214.81,403.8,200" fill="#fff"/>
<path d="M403.8,200a93,93,0,0,1-5.83,7.58,90.09,90.09,0,0,1-6.22,7.28,91.06,91.06,0,0,1,5.84-7.59A89.53,89.53,0,0,1,403.8,200Z" fill="#e0e0e0"/>
<path d="M391.83,81.58a83.13,83.13,0,0,1,5.84,7,84.52,84.52,0,0,1,5.46,7.3,84.56,84.56,0,0,1-5.85-7A82.4,82.4,0,0,1,391.83,81.58Z" fill="#e0e0e0"/>
<rect x="427.64" y="117.22" width="23.15" height="65.73" fill="#e0e0e0"/>
<rect x="545.25" y="74.67" width="147.99" height="244.67" fill="#e0e0e0"/>
<rect x="553.28" y="85.53" width="131.8" height="223.06" fill="#fff"/>
<rect x="550.15" y="122.99" width="139.09" height="10.33" fill="#e0e0e0"/>
<path d="M669.07,155c.12.13-19,18.75-42.7,41.55s-43,41.2-43.17,41.11,19-18.73,42.71-41.54S668.94,154.88,669.07,155Z" fill="#e0e0e0"/>
<path d="M643,155.56c.12.13-12,12.19-27.17,26.91S588.3,209,588.21,208.9s12-12.19,27.16-26.91S642.87,155.43,643,155.56Z" fill="#e0e0e0"/>
<rect x="698.97" y="74.67" width="147.99" height="244.67" fill="#e0e0e0"/>
<rect x="706.99" y="85.53" width="131.8" height="223.06" fill="#fff"/>
<rect x="703.88" y="122.99" width="139.09" height="10.33" fill="#e0e0e0"/>
<path d="M822.74,155c.13.13-19,18.75-42.69,41.55s-43.1,41.2-43.17,41.07,19-18.74,42.7-41.55S822.66,154.88,822.74,155Z" fill="#e0e0e0"/>
<path d="M796.72,155.56c.13.13-12,12.19-27.16,26.91S742,209,741.93,208.9s12-12.19,27.16-26.91S796.59,155.43,796.72,155.56Z" fill="#e0e0e0"/>
<polygon points="730.55 537.24 731.27 536 719.92 538.45 730.55 607.97 736.82 607.97 730.55 537.24" fill="#e0e0e0"/>
<path d="M655.51,471.09a8.49,8.49,0,0,0-6.59,8.61c.36,9,1.48,24.86,5.07,34.13,5.23,13.53,6.54,18.76,16.57,18.33s151.34,0,151.34,0,12.64.43,17.89-17.89,17-89.41,10.46-102-34.45-16.58-46.68-15.71-34.87-2.64-64.52,34.43l-29.24,33.35A273.6,273.6,0,0,0,655.51,471.09Z" fill="#ebebeb"/>
<path d="M753.32,415.49l-28.24,79.09H672.75S668.61,468,661,469.91c0,0,38.3-6.38,48.81-5.68Z" fill="#e0e0e0"/>
<path d="M770.88,532.69s5.66-7.44,8.28-21,9.16-42.3-4.14-41.89c0,0,38.59,1.2,46.44-5.06S851.39,416,851.39,416s2.1,16-1.2,39.5-7.89,51.75-10.93,60.14C837,522,833.05,531.07,821.93,532,810.17,533.09,770.88,532.69,770.88,532.69Z" fill="#e0e0e0"/>
<path d="M672.28,532s2.6,7.95,19.06,7.95H803.66s14.25-.32,18.24-8Z" fill="#e0e0e0"/>
<path d="M779.16,511.78a1.76,1.76,0,0,1,.07-.4c.07-.32.17-.71.28-1.2l1-4.56a119.25,119.25,0,0,0,2.5-17,38.42,38.42,0,0,0-.8-11.76,9.61,9.61,0,0,0-3.29-5.38c-1.76-1.35-4.23-1.31-6.53-.93A13.85,13.85,0,0,0,766,473.6a21.61,21.61,0,0,0-4.79,5.85,44.69,44.69,0,0,0-5.08,15.23l-.06.33h-1.46l-57.88-.1-17.53-.12-4.79-.08h-1.2a.21.21,0,1,1-.42-.07.2.2,0,0,1,.24-.17.19.19,0,0,1,.18.17h1.2l4.79-.07,17.53-.12,57.88-.12h1.19l-.38.34A45.3,45.3,0,0,1,760.5,479a21.94,21.94,0,0,1,5-6,14.42,14.42,0,0,1,6.79-3.22,13.86,13.86,0,0,1,1.83-.22H775l.92.09a8.43,8.43,0,0,1,1.78.38c.29.11.55.26.83.39a3.75,3.75,0,0,1,.76.48,10.09,10.09,0,0,1,3.51,5.75,38.22,38.22,0,0,1,.73,12,108.41,108.41,0,0,1-2.75,17.07c-.47,2-.89,3.51-1.2,4.55-.14.48-.26.86-.36,1.19A1.91,1.91,0,0,1,779.16,511.78Z" fill="#e0e0e0"/>
<polygon points="681.5 536 682.23 537.24 675.94 607.97 682.23 607.97 692.85 538.45 681.5 536" fill="#e0e0e0"/>
<polygon points="761.17 537.24 761.89 536 750.54 538.45 761.17 607.97 767.44 607.97 761.17 537.24" fill="#e0e0e0"/>
<polygon points="804.67 537.24 805.39 536 794.05 538.45 810.94 607.97 817.22 607.97 804.67 537.24" fill="#e0e0e0"/>
</g>
<path d="M700,163.64H662.49a4,4,0,0,0-4,4v58.63a4,4,0,0,0,4,4H700a4,4,0,0,0,4-4V167.6A4,4,0,0,0,700,163.64Zm-18.65,6.68a2.47,2.47,0,1,1,2.47-2.47A2.48,2.48,0,0,1,681.39,170.32Z" fill="#bcbec0"/>
<path d="M575.34,147.89h0a1.82,1.82,0,0,0-.56,2.46c1.29,2.13,4.07,5.65,8.18,5.18a20.61,20.61,0,0,0,8.43-4.76,4.72,4.72,0,0,1,3.29-1.31H668a6.9,6.9,0,0,1,4.94,2.13c1.86,1.93,5,4.33,8.34,3.49,0,0,5-.19,7.71-7.85a2,2,0,0,0-1.36-2.63h0a2,2,0,0,0-2.47,1.19c-1.11,2.73-3.69,7.48-7.48,5l-4.27-3.38s-1.13-2-7-1.8l-71.54.23a9.38,9.38,0,0,0-6.3,2.7s-7.27,5.92-10.69,0A1.81,1.81,0,0,0,575.34,147.89Z" fill="#bcbec0"/>
<path d="M131.88,609.79s-3.69-3-3.44-10.59V532.08h-5.91v69.58s-.74,8.37,6.65,11.82Z" fill="#bcbec0"/>
<ellipse cx="516.5" cy="617.51" rx="12.39" ry="11.84" fill="#6d6e71"/>
<path d="M509.83,512.3v86.29a9.52,9.52,0,0,0,4.63,8.71L505.75,613l-4.36-11.16-.27-88.47Z" fill="#bcbec0"/>
<ellipse cx="511.06" cy="618.05" rx="12.39" ry="11.84" fill="#939598"/>
<circle cx="687.28" cy="618.09" r="12.23" fill="#6d6e71"/>
<path d="M282.63,563.36l-12.21,16.28L302,605.27s10.4-7.17-2.13-15.45a30.7,30.7,0,0,1-5.6-4.69h0l5.9-8.54Z" fill="#0071f2" data-primary="true"/>
<polygon points="270.42 579.64 268.49 582.48 299.72 608.33 301.96 605.27 270.42 579.64" fill="#2f2e41" data-secondary="true"/>
<polygon points="276.84 563.4 301.52 582.02 345.27 538.28 346.57 497.13 313.65 515.76 276.84 563.4" fill="#2f2e41" data-secondary="true"/>
<rect x="623.08" y="529.15" width="9.73" height="81.71" fill="#a7a9ac"/>
<path d="M595,609.75h62a5.56,5.56,0,0,1,5.56,5.56v0a0,0,0,0,1,0,0h-73.1a0,0,0,0,1,0,0v0a5.56,5.56,0,0,1,5.56-5.56Z" fill="#a7a9ac"/>
<path d="M497.86,514.48v92.09a23.71,23.71,0,0,0,1.35,8c1.63,4.5,5.18,9.94,12.8,10.1,0,0,4.36.55,5.72-6.26,0,0,1.36-6-7.9-7.62,0,0-6-.82-5.71-19.87v-78.4Z" fill="#d1d3d4"/>
<rect x="664.46" y="190.45" width="34.26" height="32.94" rx="3.56" fill="#fff" opacity="0.3"/>
<rect x="670.06" y="202.8" width="23.06" height="8.23" rx="1.78" fill="#fff" opacity="0.3"/>
<path d="M680.45,151.59s1.55,4.71,1.13,15.55" fill="none" stroke="#a7a9ac" stroke-miterlimit="10"/>
<path d="M601.57,164.42H564a4,4,0,0,0-3.95,4V227A4,4,0,0,0,564,231h37.55a4,4,0,0,0,4-3.95V168.37A4,4,0,0,0,601.57,164.42Zm-18.64,6.67a2.47,2.47,0,1,1,2.47-2.47A2.46,2.46,0,0,1,582.93,171.09Z" fill="#bcbec0"/>
<path d="M582,151s1.53,6.11,1.11,16.95" fill="none" stroke="#a7a9ac" stroke-miterlimit="10"/>
<path d="M628.2,113.91h1.43a4.29,4.29,0,0,1,4.29,4.29v252a0,0,0,0,1,0,0h-10a0,0,0,0,1,0,0v-252A4.29,4.29,0,0,1,628.2,113.91Z" fill="#a7a9ac"/>
<path d="M695.13,428.71v103h-176V377.11L608.29,363h55a17.73,17.73,0,0,1,0,35.46h-6.82a3.17,3.17,0,0,0-3.18,3.17,3.18,3.18,0,0,0,3.18,3.19h14.78A23.87,23.87,0,0,1,695.13,428.71Z" fill="#bcbec0"/>
<path d="M512.5,356.49l-10,41.47,59,46.84s17.07,7.76,21.76,12.21c0,0,29.06-51.2,29.24-97.67a5.64,5.64,0,0,0-4.83-5.63c-8.54-1.23-27.06-3.14-42.45.53L515.68,354A3.26,3.26,0,0,0,512.5,356.49Z" fill="#d1d3d4"/>
<line x1="570.67" y1="445.64" x2="565.23" y2="437.99" fill="none" stroke="#bcbec0" stroke-miterlimit="10"/>
<path d="M337.16,584.72s-.41,21.57.2,21.57H386.8s5.5-24-25.83-12l.19-9.13Z" fill="#0071f2" data-primary="true"/>
<rect x="337.36" y="606.29" width="49.44" height="3.87" fill="#2f2e41" data-secondary="true"/>
<polygon points="276.84 563.4 301.52 582.02 345.27 538.28 346.57 497.13 313.65 515.76 276.84 563.4" fill="#231f20" opacity="0.2"/>
<path d="M348.76,287.33l-2.43-3-2.62,4.18s4.34,5.7,6.2,37.2c0,0,4.07,54.25,8.78,66.5,0,0,1.18-55.75-1.78-74.84,0,0,.21-14.09-6.54-32.71Z" fill="#d1d3d4"/>
<path d="M370.71,408.9s-6.68,1-9.35,1.67l-3.29-18.2s3.06-81.37-7.78-107.78c0,0,11,15,11.66,64.4a87.59,87.59,0,0,0,1.21,12.83Z" fill="#0071f2" data-primary="true"/>
<path d="M304.56,418.31s.86,16.45,21.65,38.11l13.86,53.27L333.74,587l32.92,2.17,13.69-92.5-19-86.13L347.87,388,308,400.55Z" fill="#2f2e41" data-secondary="true"/>
<polygon points="334.01 262.1 339.11 250.12 351.73 247.06 359.5 262.1 350.51 276.24 334.01 262.1" fill="#f9b499"/>
<path d="M352.78,272.61l2.93-4.44-2-23-5.53,1.59-5.36,6.71a46.87,46.87,0,0,0,10,19.1Z" fill="#f7a48b"/>
<path d="M424.83,596.19V606.4h30.61s.57-8.15-14.52-5.56a1.29,1.29,0,0,1-1.32-.61l-2.23-3.79Z" fill="#0071f2" data-primary="true"/>
<path d="M424.83,596.19V606.4h30.61s.57-8.15-14.52-5.56a1.29,1.29,0,0,1-1.32-.61l-2.23-3.79Z" fill="#231f20" opacity="0.2"/>
<rect x="424.83" y="606.4" width="30.61" height="3.49" fill="#2f2e41" data-secondary="true"/>
<rect x="424.83" y="606.4" width="30.61" height="3.49" fill="#231f20" opacity="0.2"/>
<path d="M403.84,596.89v10.2h30.61s3.38-5.58-11.2-5.79a1.29,1.29,0,0,1-1.18-.82L420.72,597Z" fill="#0071f2" data-primary="true"/>
<rect x="403.84" y="607.09" width="30.61" height="3.49" fill="#2f2e41" data-secondary="true"/>
<path d="M410.29,514.2s4.29,15.3,1.61,26L403.53,597s11.59,6.11,21,1.28c0,0,5.9,3.49,13.15-1.34,0,0,18.53-66.58,19.33-84.57Z" fill="#2f2e41" data-secondary="true"/>
<polygon points="478.04 404.83 490.27 420.13 499.95 415.91 492.77 401.16 478.04 404.83" fill="#f9b499"/>
<path d="M446.09,326l15.16,6s8.73.2,12.26,19.52c0,0,12.34,37.41,19.86,48.6a1.09,1.09,0,0,1-.64,1.66L478,405.61a1.09,1.09,0,0,1-1.16-.42l-10.94-15.13a13.38,13.38,0,0,1-1.72-3.26l-5-13.83s-1.57,5.51-2.84,9.65a10.35,10.35,0,0,0-.11,5.76l6.49,24.48s-32.85-9.69-62.63,1.41l-5-.56L399.89,397s-14.64,6.85-16.86-4.63c0,0-1.67-4.27,1.48-17.61l6.67-29.46s3.15-13.15,11.86-14.82l19.36-7S435,335.24,446.09,326Z" fill="#0071f2" data-primary="true"/>
<path d="M422,301.09l.41,22.44s12.47,11.63,23.69,2.49V312.73l-20.36-13.09Z" fill="#f9b499"/>
<line x1="570.18" y1="373.75" x2="580.3" y2="368.07" fill="none" stroke="#bcbec0" stroke-miterlimit="10"/>
<line x1="577.34" y1="377.46" x2="567.7" y2="384.62" fill="none" stroke="#bcbec0" stroke-miterlimit="10"/>
<line x1="585" y1="372.77" x2="581.29" y2="375.48" fill="none" stroke="#bcbec0" stroke-miterlimit="10"/>
<path d="M566.52,411.31s4.72,21.54-5,33.49l-1.69-.45-1.36-13.87Z" fill="#0071f2" data-primary="true"/>
<path d="M566.52,411.31s4.72,21.54-5,33.49l-1.69-.45-1.36-13.87Z" fill="#231f20" opacity="0.2"/>
<path d="M506.07,395.47c-10.94,11.21-10.35,26.06-10.35,26.06l-6.61-1.75c1.91.46,3.15-.85,3.88-2.12a8.28,8.28,0,0,0,1-3.07,27,27,0,0,1,12.12-19.13Z" fill="#0071f2" data-primary="true"/>
<path d="M506.07,395.47c-10.94,11.21-10.35,26.06-10.35,26.06l-6.61-1.75c1.91.46,3.15-.85,3.88-2.12a8.28,8.28,0,0,0,1-3.07,27,27,0,0,1,12.12-19.13Z" fill="#231f20" opacity="0.2"/>
<path d="M457.7,356.83s2.78,5,1.49,16.86" fill="none" stroke="#0071f2" stroke-miterlimit="10"/>
<path d="M400.08,339.23s.74,14.64,2.22,25.94" fill="none" stroke="#0071f2" stroke-miterlimit="10"/>
<path d="M399.89,397s8.34-4.45,8.71-13.34l7.46-15.83s2.19-3.83,5-5.12c0,0,10.37-5.18,16.86-9.44,0,0,1.67,4.08-12.23,10.56,0,0-7.6,3.15-9.64,10.19l-3.33,9.45S411.75,394.81,399.89,397Z" fill="#231f20" opacity="0.2"/>
<ellipse cx="368.68" cy="240.43" rx="16.82" ry="27.53" fill="#f9b499"/>
<path d="M350.33,249.1s-9.94,12.74-13.51,6.62a114,114,0,0,0-2.48-13.79,48.24,48.24,0,0,0-2.14-6.86c-1.58-4.09-3.65-12.7,3.92-18.29.73-.54,1.45-1.08,2.14-1.65,2.95-2.43,12.75-9.07,28.12-5.28,0,0,16.57,3.82,14.53,12,0,0-11.72-7.14-16.82-2a2.38,2.38,0,0,0,.2,3.92c.9.66,2,2.43-1.48,6.78L359.57,235a4.4,4.4,0,0,0-.83,2.57V256s18.13-.3,21.19,5a28,28,0,0,1-5.65,9,24.72,24.72,0,0,1-5.41,4.51,5.16,5.16,0,0,1-4.23.55,24.56,24.56,0,0,1-5.84-2.74,17.24,17.24,0,0,1-8.42-13.63,5.42,5.42,0,0,1,.16-1.75,42.51,42.51,0,0,0,1.19-9.88Z" fill="#2f2e41" data-secondary="true"/>
<polygon points="356.43 290.15 350.18 284.83 353.92 278.74 357.21 281.86 356.43 290.15" fill="#0071f2" data-primary="true"/>
<polygon points="356.43 290.15 350.18 284.83 353.92 278.74 357.21 281.86 356.43 290.15" fill="#fff" opacity="0.4"/>
<path d="M329.3,267s-30.4,16.7-26.05,68.47l.66,22.71s-10,40.45-2.76,59.67a1.59,1.59,0,0,0,2.35.74l21.79-14.32s18.37-6.34,29.39,8.69a16.25,16.25,0,0,1,6.68-2.34l-4-24.38s-5-22.72-5.34-45.43c0,0-3.34-47.09-6-53.1l.33-3.34Z" fill="#0071f2" data-primary="true"/>
<path d="M439.82,515.27a21.93,21.93,0,0,1,1.21,5.18,47.35,47.35,0,0,1,.34,5.32,70.16,70.16,0,0,1-.9,10.63c-.57,3.51-1.38,7-2.29,10.41l-2.65,10.3-5.42,20.59L427.35,588l-2.83,10.26L427,587.89l2.59-10.32L434.91,557l2.7-10.29c.94-3.42,1.73-6.86,2.37-10.35a69,69,0,0,0,1.07-10.54A32.38,32.38,0,0,0,439.82,515.27Z" fill="#231f20" opacity="0.2"/>
<rect x="274.67" y="467.37" width="414.89" height="48.93" fill="#939598"/>
<ellipse cx="135.42" cy="617.69" rx="12.39" ry="11.84" fill="#6d6e71"/>
<rect x="119.68" y="570.29" width="171.14" height="25.21" fill="#d1d3d4"/>
<path d="M565.11,422a7,7,0,0,0-.46,2.12c-.2,3.81-1.44,16.6-4.83,20.22,0,0-41.79-15.32-64.22-22.88,0,0-.47-14.79,10.47-26a36.12,36.12,0,0,1,6.11-5s12.23-7.5,23.07-8.34l16.82-1.8.5,3.56s13.95-10.24,15.89,4.5C568.46,388.38,569,411.82,565.11,422Z" fill="#0071f2" data-primary="true"/>
<path d="M554.51,371.1l-11.77,11.51A24.21,24.21,0,0,1,527.87,396a1.18,1.18,0,0,1-1.46-1.56c1.41-3.7,7.61-11.24,11.18-15.41.88-1,1.6-1.85,2-2.36a.4.4,0,0,0-.25-.66l-3.77-.46-.55-.06.31-.35.17-.19,10.16-11.23Z" fill="#f9b499"/>
<path d="M547.26,366.34c-.12.28-4.53,11.22-9.66,12.67v0c.88-1,1.6-1.85,2-2.36a.4.4,0,0,0-.25-.66l-3.77-.46-.24-.41,0-.07.21-.12Z" fill="#f7a48b"/>
<ellipse cx="535.4" cy="354.36" rx="22.29" ry="14.49" transform="translate(111.47 836.56) rotate(-82.18)" fill="#f9b499"/>
<path d="M533.47,333.16S527,334.82,523,344.7c0,0-4.39-2-.44-8.9l6.26-7.91s1.65-3.95,8.89-2.63c0,0,27,1.31,29,13.5l1,17.79A18.69,18.69,0,0,1,564.41,369a8.73,8.73,0,0,0-1.33,6.88c.3,1.38.8,3.69.4,4.88,0,0-4-1.68-10.9,3.14,0,0-14.83,1-14.5-3.3,0,0,.46-1.37,2.71-1.83a6.81,6.81,0,0,0,4.37-2.8c1.17-1.77,2-4.47.76-8.28A15.19,15.19,0,0,0,544,363.8,68,68,0,0,1,533.47,333.16Z" fill="#2f2e41" data-secondary="true"/>
<path d="M549.7,389.07c-1.79,4.61-3.83,9.12-6,13.56-1.14,2.2-2.32,4.37-3.61,6.5a24.88,24.88,0,0,1-4.62,5.89l0,0,0,0a18.18,18.18,0,0,0-2.76,1.37,12.66,12.66,0,0,0-2.42,1.88,5.31,5.31,0,0,0-1.52,2.53,3.64,3.64,0,0,0,0,1.47,5.46,5.46,0,0,0,.53,1.39l0,0a4.09,4.09,0,0,1,.94,2.11,3.56,3.56,0,0,1-.48,2.22,6.08,6.08,0,0,1-1.5,1.69c-.3.22-.6.45-.91.65l-1,.55.93-.61c.3-.22.58-.46.87-.69a5.74,5.74,0,0,0,1.37-1.7,3.26,3.26,0,0,0,.36-2.07,3.6,3.6,0,0,0-.9-1.88v0a5.74,5.74,0,0,1-.63-1.51,4.17,4.17,0,0,1,0-1.65,5.72,5.72,0,0,1,1.59-2.82,12.94,12.94,0,0,1,2.52-2,19,19,0,0,1,2.84-1.46l-.08.05.65-.62a7.65,7.65,0,0,0,.62-.65c.38-.48.8-.92,1.14-1.43s.73-1,1.06-1.49l1-1.55c1.29-2.09,2.49-4.25,3.64-6.43C545.49,398,547.63,393.56,549.7,389.07Z" fill="#231f20" opacity="0.2"/>
<path d="M532.47,427a29.37,29.37,0,0,1,3.37,2,31.34,31.34,0,0,1,3.09,2.42,21.57,21.57,0,0,1,2.73,2.84,10.68,10.68,0,0,1,1.93,3.43,16.34,16.34,0,0,0-2.31-3.1,37.19,37.19,0,0,0-2.78-2.69c-1-.86-2-1.68-3-2.49S533.5,427.81,532.47,427Z" fill="#231f20" opacity="0.2"/>
<path d="M535.39,425.9a21.39,21.39,0,0,1,4.11,1.25,23.49,23.49,0,0,1,3.83,2,18.79,18.79,0,0,1,3.34,2.76,12.58,12.58,0,0,1,2.34,3.61,15.46,15.46,0,0,0-1.27-1.71,15,15,0,0,0-1.43-1.55,26.84,26.84,0,0,0-3.33-2.57,37.86,37.86,0,0,0-3.69-2.06c-.63-.32-1.27-.61-1.93-.89S536.05,426.16,535.39,425.9Z" fill="#231f20" opacity="0.2"/>
<path d="M505.09,413.11a52.45,52.45,0,0,1,1.71,5.83,50.41,50.41,0,0,1,1.07,6,58.15,58.15,0,0,1-2.78-11.82Z" fill="#231f20" opacity="0.2"/>
<path d="M508.57,414.92a52.45,52.45,0,0,1,4.72,10.7,52.45,52.45,0,0,1-4.72-10.7Z" fill="#231f20" opacity="0.2"/>
<path d="M446.05,320l0-7.28-18-5.41S428.1,321.49,446.05,320Z" fill="#f7a48b"/>
<ellipse cx="440.96" cy="290.84" rx="19.03" ry="26.27" transform="translate(-35.23 62.2) rotate(-7.76)" fill="#f9b499"/>
<path d="M425.11,295.28s6.85-4.37,10.8-16c0,0,4.65-10.21,9.75-11.74a4,4,0,0,1,3.66.83c3.16,2.62,13.07,12.39,10.27,30.44,0,0-1.25,13.92-13.5,17.66V326l13.92,5.4s5.4,1.25,7.47,4.57c0,0-1.5-11.36-3.46-18.05a18.78,18.78,0,0,1-.75-4.83c-.19-7-.93-26-3.64-36.65a15.71,15.71,0,0,0-4.75-7.85c-5.09-4.53-15.88-11.24-30.4-4.49,0,0-9,2.88-12.87,24a38.94,38.94,0,0,1-1.53,5.82c-1.28,3.7-3.44,9.9-5.33,15.05,0,0-10.81,29.08,0,42.38l1.87-7.69.4,2.95a8.34,8.34,0,0,0,8.75,7.2l6.84-.39,1-13.92s-1.45-15.16-1.66-38.43Z" fill="#2f2e41" data-secondary="true"/>
<ellipse cx="420.85" cy="297.25" rx="4.67" ry="5.51" fill="#f9b499"/>
<path d="M396.19,373.32,408.6,383.7l7.46-15.83a11,11,0,0,1,5-5.12c4.91-2.51,14-7.29,18.18-10.57a1.25,1.25,0,0,0,.11-1.88h0a1.26,1.26,0,0,0-1.53-.2L432,353.5a.77.77,0,0,1-1-.22h0a.77.77,0,0,1,.26-1.13l9.75-5.32a1.7,1.7,0,0,0,.56-2.5h0a1.7,1.7,0,0,0-2.2-.47l-8,4.09,8.62-6a1.93,1.93,0,0,0,.15-3h0a1.94,1.94,0,0,0-2.61,0l-.34.31-.36-.36a3.88,3.88,0,0,0-4.6-.67l-6.35,3.44a1.76,1.76,0,0,0-.61-3,.61.61,0,0,0-.61,0c-1.89,1.2-12.08,8-13.77,15.54a5.92,5.92,0,0,1-1.16,2.5Z" fill="#f9b499"/>
<line x1="437.14" y1="339.23" x2="428.4" y2="345.58" fill="none" stroke="#f7a48b" stroke-miterlimit="10"/>
<line x1="425.83" y1="341.64" x2="419.78" y2="347.25" fill="none" stroke="#f7a48b" stroke-miterlimit="10"/>
<path d="M442.35,265.78a15.44,15.44,0,0,1-1.83,3.33,32.32,32.32,0,0,1-2.4,3,43.43,43.43,0,0,1-5.61,5.15c-1,.81-2,1.52-3.07,2.27s-2.12,1.4-3.18,2.1l-3.28,2-3.36,1.81h0a12.13,12.13,0,0,0-3.12,2.35,20.52,20.52,0,0,0-2.48,3.08,27,27,0,0,0-3.23,7.25,41.63,41.63,0,0,0-1.52,7.84,48.57,48.57,0,0,0-.26,8c.11,2.67.47,5.32.82,8s.76,5.31,1.23,7.95,1,5.28,1.61,7.88a45.21,45.21,0,0,0,2.47,7.65,42.23,42.23,0,0,1-2.68-7.59c-.7-2.6-1.27-5.23-1.78-7.87s-.95-5.29-1.35-7.95a74.13,74.13,0,0,1-.89-8,48.47,48.47,0,0,1,.22-8.08,41.42,41.42,0,0,1,1.51-8,27.3,27.3,0,0,1,3.35-7.4,16.26,16.26,0,0,1,5.88-5.62h0l3.35-1.78,3.29-1.89c1.06-.68,2.14-1.34,3.19-2s2.09-1.42,3.08-2.21a46.59,46.59,0,0,0,5.68-5,30.65,30.65,0,0,0,2.46-2.88A15.73,15.73,0,0,0,442.35,265.78Z" fill="#231f20" opacity="0.2"/>
<path d="M430.47,364.8a15.93,15.93,0,0,1-1.31,4.75,15.25,15.25,0,0,1-2.72,4.16,14.84,14.84,0,0,1-1.85,1.69c-.34.24-.7.46-1,.69a5.5,5.5,0,0,1-1.1.58,9.61,9.61,0,0,1-1.14.5l-1.19.37a7,7,0,0,1-1.21.24c-.41.07-.81.12-1.22.17a18,18,0,0,0,4.53-1.72,15.75,15.75,0,0,0,2-1.31,16,16,0,0,0,1.74-1.65,18.08,18.08,0,0,0,2.75-3.94,19.08,19.08,0,0,0,1-2.21A18.55,18.55,0,0,0,430.47,364.8Z" fill="#231f20" opacity="0.2"/>
<path d="M396.19,373.32c0-.28-.19-.55-.45-.48a1.77,1.77,0,0,0-.68.35,11.34,11.34,0,0,0-1.2,1.1c-.39.38-.73.81-1.12,1.21l-1.15,1.19-.18.19-.24-.17a1.93,1.93,0,0,0-1-.32,2.58,2.58,0,0,0-1.06.15,5.77,5.77,0,0,0-1.91,1.26,14.33,14.33,0,0,0-1.54,1.83c-.22.34-.49.65-.7,1s-.43.69-.66,1a17.34,17.34,0,0,1,1.06-2.22,12.9,12.9,0,0,1,1.44-2,5.62,5.62,0,0,1,2.1-1.47,2.79,2.79,0,0,1,2.64.29l-.42,0,1.19-1.14c.4-.38.8-.77,1.22-1.13a8,8,0,0,1,1.36-1,1.85,1.85,0,0,1,.82-.27.41.41,0,0,1,.39.2A.69.69,0,0,1,396.19,373.32Z" fill="#231f20" opacity="0.2"/>
<path d="M392.3,377.58a21.66,21.66,0,0,0,2.57,3,38,38,0,0,0,2.93,2.6c.52.4,1,.81,1.57,1.18s1.08.75,1.62,1.12,1.11.71,1.66,1.07,1.13.68,1.69,1c-.62-.24-1.23-.5-1.84-.77s-1.2-.58-1.78-.92a26.3,26.3,0,0,1-3.32-2.22,22.35,22.35,0,0,1-2.9-2.77A13.1,13.1,0,0,1,392.3,377.58Z" fill="#231f20" opacity="0.2"/>
<ellipse cx="351.73" cy="241.07" rx="4.21" ry="5.99" fill="#f9b499"/>
<path d="M325.41,362.29s-11.19-5.21-18.74,7l-5.46-14.05s-1.57-5.21,2.6-16.13l5.55-16.21a11.65,11.65,0,0,0,.64-4.14l-.39-16.68A21.66,21.66,0,0,1,312.27,291a15.23,15.23,0,0,1,13.66-8.29s20.29.78,14.57,20.29l-17.11,42.91a7.67,7.67,0,0,0-.4,4.34Z" fill="#0071f2" data-primary="true"/>
<path d="M325.41,362.29s-11.19-5.21-18.74,7l-5.46-14.05s-1.57-5.21,2.6-16.13l5.55-16.21a11.65,11.65,0,0,0,.64-4.14l-.39-16.68A21.66,21.66,0,0,1,312.27,291a15.23,15.23,0,0,1,13.66-8.29s20.29.78,14.57,20.29l-17.11,42.91a7.67,7.67,0,0,0-.4,4.34Z" fill="#231f20" opacity="0.2"/>
<path d="M306.67,369.31l19.26,45L340.5,406l-8.29-8.73a7.44,7.44,0,0,1-2-4l-4.84-31S314.48,356.82,306.67,369.31Z" fill="#f9b499"/>
<path d="M332.35,260h0l-4.49,5.61,20.9,21.75,5.16-8.59-17.84-14.91A25.69,25.69,0,0,1,332.35,260Z" fill="#0071f2" data-primary="true"/>
<path d="M332.35,260h0l-4.49,5.61,20.9,21.75,5.16-8.59-17.84-14.91A25.69,25.69,0,0,1,332.35,260Z" fill="#fff" opacity="0.3"/>
<path d="M322.41,419.33a31.56,31.56,0,0,1,4.4-6.33c.73-.74,1.54-1.4,2.34-2.07a30.3,30.3,0,0,1,2.58-1.78l.67-.4.69-.37c.47-.23.92-.5,1.4-.7a24.07,24.07,0,0,1,2.93-1.1,34.3,34.3,0,0,1,7.69-1c-2,.62-5.1,1.68-6.95,2.5a36.5,36.5,0,0,0-5.36,2.73,38.31,38.31,0,0,0-4.91,3.49A64.41,64.41,0,0,0,322.41,419.33Z" fill="#2f2e41" data-secondary="true"/>
<path d="M322.41,419.33a31.56,31.56,0,0,1,4.4-6.33c.73-.74,1.54-1.4,2.34-2.07a30.3,30.3,0,0,1,2.58-1.78l.67-.4.69-.37c.47-.23.92-.5,1.4-.7a24.07,24.07,0,0,1,2.93-1.1,34.3,34.3,0,0,1,7.69-1c-2,.62-5.1,1.68-6.95,2.5a36.5,36.5,0,0,0-5.36,2.73,38.31,38.31,0,0,0-4.91,3.49A64.41,64.41,0,0,0,322.41,419.33Z" fill="#231f20" opacity="0.2"/>
<path d="M274.5,441.37s20.63-11.14,48.69-5.78c0,0,35.26-41.28,71.89-21.88l5,.56s18.95-12.6,62.63-1.41l27.15,7s97,26.29,102.55,47.41l-317.74.11Z" fill="#0071f2" data-primary="true"/>
<path d="M274.5,441.37s20.63-11.14,48.69-5.78c0,0,35.26-41.28,71.89-21.88l5,.56s18.95-12.6,62.63-1.41l27.15,7s97,26.29,102.55,47.41l-317.74.11Z" fill="#fff" opacity="0.3"/>
<path d="M442.72,420.76c-3.62-.72-7.25-1.4-10.89-2s-7.29-1.08-10.95-1.45-7.34-.69-11-.91c-1.84-.11-3.68-.19-5.52-.25s-3.69-.1-5.53-.14c1.84-.11,3.69-.15,5.53-.17s3.7,0,5.54.06c3.7.12,7.39.4,11.07.77s7.33.93,11,1.6S439.16,419.78,442.72,420.76Z" fill="#fff" opacity="0.3"/>
<path d="M446.71,420.76c4.64,1.14,9.23,2.41,13.82,3.74s9.13,2.74,13.68,4.2,9,3.05,13.5,4.77a112.13,112.13,0,0,1,13.08,5.8l-3.26-1.47-3.31-1.35c-2.22-.86-4.44-1.73-6.69-2.52-4.48-1.61-9-3.16-13.52-4.61s-9.08-2.93-13.63-4.35Z" fill="#fff" opacity="0.3"/>
<path d="M508.05,444a9.52,9.52,0,0,1-4-2.9,8.52,8.52,0,0,1,2.18,1.19A8.37,8.37,0,0,1,508.05,444Z" fill="#fff" opacity="0.3"/>
<path d="M448.89,431.28c4.29,1.16,8.54,2.46,12.77,3.81s8.42,2.82,12.6,4.33,8.3,3.18,12.36,5a60.67,60.67,0,0,1,11.63,6.47l-1.41-.89a15.67,15.67,0,0,0-1.42-.85c-1-.51-1.94-1.07-2.95-1.53s-2-1-3-1.42l-3.05-1.32Q480.29,442.31,474,440c-4.15-1.55-8.34-3-12.53-4.46S453.1,432.7,448.89,431.28Z" fill="#fff" opacity="0.3"/>
<path d="M503.33,453.42c1.6.62,3.15,1.36,4.69,2.13s3,1.63,4.48,2.53a41.21,41.21,0,0,1,4.23,3,20.9,20.9,0,0,1,3.66,3.62c-.32-.29-.64-.58-.94-.87s-.66-.54-1-.81-.67-.53-1-.79-.68-.52-1-.75c-1.39-1-2.82-1.92-4.27-2.82s-2.91-1.77-4.38-2.64Z" fill="#fff" opacity="0.3"/>
<path d="M434.74,441.44c3.37,1.62,6.68,3.39,9.95,5.2s6.48,3.76,9.67,5.73,6.26,4.13,9.25,6.4a42.62,42.62,0,0,1,8.15,7.72c-.66-.68-1.27-1.38-1.94-2s-1.38-1.26-2.09-1.86l-2.18-1.76c-.74-.57-1.5-1.11-2.24-1.67-3-2.18-6.12-4.28-9.3-6.25s-6.35-3.94-9.56-5.85q-2.42-1.43-4.85-2.83Z" fill="#fff" opacity="0.3"/>
<path d="M422.76,455.6c2,.42,4,1,6,1.55s4,1.26,5.91,2a57.76,57.76,0,0,1,5.72,2.48c.93.47,1.83,1,2.73,1.52l1.28.9c.42.32.8.67,1.19,1a30,30,0,0,0-5.42-3c-1.89-.82-3.79-1.61-5.73-2.32s-3.88-1.42-5.83-2.11Z" fill="#fff" opacity="0.3"/>
<rect x="271.75" y="476.9" width="422.28" height="20.48" fill="#bcbec0"/>
<path d="M277.44,429.07V532.12H99.24v-103a24.89,24.89,0,0,1,24.88-24.89H252.57A24.88,24.88,0,0,1,277.44,429.07Z" fill="#bcbec0"/>
<path d="M277.44,429.07V532.12H270V427.64c-.69-19.77-21.24-23.21-22.88-23.46h5.42A24.88,24.88,0,0,1,277.44,429.07Z" fill="#a7a9ac"/>
<path d="M695.13,428.71v103h-6v-106c-.76-15.13-17.91-20.87-17.91-20.87A23.87,23.87,0,0,1,695.13,428.71Z" fill="#a7a9ac"/>
<ellipse cx="305.82" cy="617.51" rx="12.39" ry="11.84" fill="#6d6e71"/>
<path d="M294.22,497.47H299l.32,103.86s1.26,6,5.37,6.95l-5.16,2.59-9.69-2.27,1.9-107.11Z" fill="#bcbec0"/>
<ellipse cx="300.38" cy="618.05" rx="12.39" ry="11.84" fill="#808285"/>
<ellipse cx="129.97" cy="618.24" rx="12.39" ry="11.84" fill="#808285"/>
<path d="M116.87,532.08l.49,76.84s.49,11.82,8.86,15.51c0,0,9.85,2.21,10.1-5.91,0,0,.73-7.14-7.14-7.39,0,0-6.65-1.72-6.65-11.81V532.08Z" fill="#d1d3d4"/>
<circle cx="658.56" cy="621.06" r="8.34" fill="#939598"/>
<circle cx="625.58" cy="620.5" r="8.34" fill="#939598"/>
<circle cx="589.08" cy="620.69" r="8.34" fill="#939598"/>
<rect x="565.67" y="190.45" width="34.26" height="32.94" rx="3.56" fill="#0071f2" data-primary="true"/>
<rect x="571.27" y="202.8" width="23.06" height="8.23" rx="1.78" fill="#fff" opacity="0.3"/>
<path d="M680.26,496.41V596.74s-.55,6.65,4.63,10.13l-8.71,6.65-4.36-13-.27-102.86Z" fill="#bcbec0"/>
<circle cx="681.72" cy="618.09" r="12.23" fill="#939598"/>
<path d="M668.38,594.47H293.16c-1.94,13.34,6.4,16.4,6.4,16.4C309,612,306,621.15,306,621.15c-3.61,6.11-10.56,2.22-10.56,2.22-8.9-5.83-7.78-13.89-7.78-13.89v-112h6.61v73H669.09V497.38h5.22V599.56s-1.11,8.53,8.52,12.23c0,0,6.28,1.63,5.39,7.27a7.42,7.42,0,0,1-8.17,6.14c-4-.45-8.87-3.3-10.93-13.78Z" fill="#d1d3d4"/>
</svg>