<svg id="f4523e6f-301e-4b7f-902b-0a43e14fc23b" data-name="Layer 1" xmlns="http://www.w3.org/2000/svg" width="865.76" height="682.89" viewBox="0 0 865.76 682.89"><g id="ff08f2de-eee2-4497-836d-9170ff24bc55" data-name="freepik--background-complete--inject-125"><rect x="21.29" y="595.27" width="823.19" height="0.41" fill="#ebebeb"/><rect x="707.46" y="621.76" width="54.53" height="0.41" fill="#ebebeb"/><rect x="552.29" y="626.24" width="14.31" height="0.41" fill="#ebebeb"/><rect x="674.22" y="606.48" width="31.59" height="0.41" fill="#ebebeb"/><rect x="107.66" y="609.25" width="71.11" height="0.41" fill="#ebebeb"/><rect x="193.43" y="609.25" width="10.42" height="0.41" fill="#ebebeb"/><rect x="237.74" y="616.19" width="154.23" height="0.41" fill="#ebebeb"/><path d="M411.48,521.84H93.58a9.4,9.4,0,0,1-9.38-9.4V65.56a9.39,9.39,0,0,1,9.38-9.31h317.9a9.4,9.4,0,0,1,9.4,9.4h0V512.44A9.4,9.4,0,0,1,411.48,521.84ZM93.58,56.57a9,9,0,0,0-9,9V512.44a9,9,0,0,0,9,9h317.9a9,9,0,0,0,9-9V65.56a9,9,0,0,0-9-9Z" fill="#ebebeb"/><path d="M767.61,521.84H449.69a9.41,9.41,0,0,1-9.4-9.4V65.56a9.41,9.41,0,0,1,9.4-9.31H767.61A9.39,9.39,0,0,1,777,65.56V512.44A9.39,9.39,0,0,1,767.61,521.84ZM449.69,56.57a9,9,0,0,0-9,9V512.44a9,9,0,0,0,9,9H767.61a9,9,0,0,0,9-9V65.56a9,9,0,0,0-9-9Z" fill="#ebebeb"/><rect x="115.77" y="134.17" width="252.52" height="461.1" fill="#ebebeb"/><rect x="152.8" y="77.8" width="178.47" height="30.59" fill="#fafafa"/><rect x="128.76" y="145.36" width="226.54" height="449.9" fill="#fff"/><path d="M344.46,346.81h-45.1a4.34,4.34,0,0,0-4.36,4.33v0h0a4.36,4.36,0,0,0,4.36,4.36h45.1a4.36,4.36,0,0,0,4.36-4.36h0A4.37,4.37,0,0,0,344.46,346.81Z" fill="#ebebeb"/><rect x="162.63" y="170.29" width="52.49" height="379.92" fill="#ebebeb"/><polygon points="215.12 224.01 162.63 250.25 162.63 314.61 215.12 288.37 215.12 224.01" fill="#f5f5f5"/><polygon points="215.12 301.5 162.63 327.75 162.63 352.39 215.12 326.15 215.12 301.5" fill="#f5f5f5"/><polygon points="215.12 435.42 162.63 461.65 162.63 486.29 215.12 460.05 215.12 435.42" fill="#f5f5f5"/><rect x="406.03" y="108.37" width="343.98" height="364.95" fill="#ebebeb"/><rect x="408.7" y="111.22" width="338.64" height="359.29" fill="#fff"/><rect x="461.69" y="283.78" width="86.99" height="110.9" transform="translate(140.67 826.48) rotate(-87.08)" fill="#f0f0f0"/><rect x="567.56" y="195.65" width="110.9" height="86.99" transform="translate(-23.56 73.98) rotate(-6.67)" fill="#f0f0f0"/><rect x="491.33" y="99.4" width="173.36" height="27.61" rx="12.23" fill="#e6e6e6"/><rect x="497.04" y="109.57" width="161.94" height="14.93" rx="7.23" fill="#fff"/><rect x="438.51" y="153.4" width="145.36" height="114.03" fill="#e6e6e6"/><path d="M458,166.91c-9.32-.31-10.31,5.16-6.67,8.47s39.08,23.16,40.3,29,3.51,14.55,7.1,7.11,10.34-5.45,12.69-11.74c1.65-4.54-15.39-4.94-20.4-8.5C476.28,180.92,463.42,167.11,458,166.91Z" fill="#fff"/><path d="M558.7,253.89c4.18,1.12,4.94-.94,1.28-4.23s-32.93-20.1-34.92-33.22c-.9-5.91-3.5-14.57-7.11-7.13s-10.32,5.46-12.68,11.75c-1.64,4.53,15.4,4.94,20.4,8.48C540.37,239.9,553.41,252.49,558.7,253.89Z" fill="#fff"/><path d="M514,211.53c3.11-3.44-1.2-8.4-7.64-5.5S505.65,220.88,514,211.53Z" fill="#fff"/><path d="M523.33,212c10.24,12.22,38.91,32.32,43,33.79s7.39,8.23-4.53.39-36.68-26.59-38.43-29.75S523.33,212,523.33,212Z" fill="#fff"/><rect x="565.41" y="302.77" width="145.36" height="114.03" fill="#e6e6e6"/><path d="M652.54,319.66c-12.56-.34-6.22,30.66-3.85,48s5.91,37.86,24.83,37,23.34-13.42,19.49-30.38C687.1,348.21,663.82,319.93,652.54,319.66Z" fill="#fff"/><path d="M623.65,319.66c12.54-.34,6.2,30.66,3.85,48s-5.91,37.86-24.83,37-23.34-13.42-19.49-30.38C589.07,348.21,612.34,319.93,623.65,319.66Z" fill="#fff"/><path d="M651.09,344.61a3.63,3.63,0,0,1-1.73-.45c-.61-.34-14.81-8.54-14.81-28.71a3.55,3.55,0,0,1,7.09,0c0,15.89,10.75,22.28,11.21,22.54a3.53,3.53,0,0,1-1.76,6.58Z" fill="#fff"/><path d="M625.1,344.61a3.55,3.55,0,0,1-1.77-6.59c.51-.29,11.22-6.68,11.22-22.54a3.55,3.55,0,0,1,7.09,0c0,20.17-14.21,28.37-14.82,28.72A3.55,3.55,0,0,1,625.1,344.61Z" fill="#fff"/><path d="M665.68,385.78a9.07,9.07,0,1,0,9.09-9h0A9.07,9.07,0,0,0,665.68,385.78Z" fill="#f5f5f5"/><path d="M617.05,350.45c-1.54,4.78-.84,9.25,1.54,10s5.55-2.49,7.08-7.25.84-9.25-1.55-10S618.58,345.69,617.05,350.45Z" fill="#f5f5f5"/></g><path d="M387,382.1s29.43,24.29,70.28,18.57c0,0,33.43,10.87,53.72-8.85a37.4,37.4,0,0,0,8.85-12s10.3-21.85-26.79-45.31l-87.21,10.83S413,370.1,387,382.1Z" fill="#0071f2"/><path d="M629.81,209.81l-18.93-19.12s-21.23-5.08-15.58-28a3.34,3.34,0,0,1,3-2.62c1.81-.09,4.27,1.34,6.41,8,0,0,4.5,4.61,6.22,2.5,0,0-4.1-9,0-8.06,0,0,2.51,6.47,5.42,9.11,0,0,4.45,5.82,3.94,11.37l7.1,5.44a58.66,58.66,0,0,1,2,9.85A63.22,63.22,0,0,1,629.81,209.81Z" fill="#f9b499"/><path d="M387,382.1s29.43,24.29,70.28,18.57c0,0,33.43,10.87,53.72-8.85a37.4,37.4,0,0,0,8.85-12s10.3-21.85-26.79-45.31l-85.52,10.83S413,370.1,387,382.1Z" opacity="0.2"/><path d="M343.35,233.64c-10.37,0-13.71-4.4-14.53-8.6a10.85,10.85,0,0,1,2.09-8.51c8.71-11.7,9.36-15.6,9.36-15.64l1,.13c0,.16-.6,4.08-9.56,16.1a9.87,9.87,0,0,0-1.9,7.73c.95,4.88,5.76,10,23.26,6.78l.18,1A54.43,54.43,0,0,1,343.35,233.64Z" fill="#2f2e41"/><rect x="336.45" y="196.68" width="8.65" height="6.66" fill="#d1d3d4"/><path d="M303,175.24H403.3a0,0,0,0,1,0,0V201a0,0,0,0,1,0,0H303a12.86,12.86,0,0,1-12.86-12.86v0A12.86,12.86,0,0,1,303,175.24Z" fill="#bcbec0"/><path d="M104.73,259.14s15,27.22,23.24,31.35l86.78,64.9s4.2,2.87,6.61,12.19l11.9-20.2s-5,1.74-19.26-7.85L135.48,280S118.83,271.69,121.9,248Z" fill="#d1d3d4"/><path d="M110.75,258.84s1.44,17,22.85,31.65l99.66,74.33,3.28-2.95L129.09,279.22s-11.66-11.86-11.84-23.59C117.25,255.63,113.7,258.54,110.75,258.84Z" opacity="0.2"/><path d="M148.84,274.13,261,386.17s13.42,16.05,26.53,3c0,0,12.27-10.22-3.31-24.35L169,263.8Z" fill="#d1d3d4"/><path d="M262.64,358c5.8,4.77,5.39,7.33,4.26,8.57a3.09,3.09,0,0,1-2.94.9C246.55,363.68,169,285,169,285c-5.1-4.31-2.76-8-2.76-8s3.55-6.36,13.17,4.8Z" opacity="0.2"/><path d="M104.73,274.2s21.45-14.08,36.82-21.24l112-50.2s49.5-23.23,52.07-16.37c0,0,4,3.14-14.86,12.57,0,0-124,70.71-145,80.14,0,0-16.3,7-33,13.14Z" fill="#d1d3d4"/><rect x="356.18" y="558.23" width="2.96" height="28.2" fill="#d1d3d4"/><path d="M457.38,539.06s-1.51,40.76,10.49,51.61c0,0-11.37,2.57-20.4,0l-1.59-52.24,2.53-.7Z" fill="#f7a48b"/><path d="M467.87,590.67s4.29,10-3.14,10.29H447.37s-4.88-2.57.1-10.29A56.59,56.59,0,0,0,467.87,590.67Z" fill="#0071f2"/><path d="M467.87,590.67s4.29,10-3.14,10.29H447.37s-4.88-2.57.1-10.29A56.59,56.59,0,0,0,467.87,590.67Z" opacity="0.2"/><path d="M457.38,539.06l-9-1.33s-4.27-34.17,4.49-69.62l-.53-144.44h43.45s-20.93,72.26-16.66,96.61c0,0,2.34,42.28-5,57.66C474.14,477.94,458.23,532.27,457.38,539.06Z" fill="#2f2e41"/><path d="M457.38,539.06l-9-1.33s-4.27-34.17,4.49-69.62l-.53-144.44h43.45s-20.93,72.26-16.66,96.61c0,0,2.34,42.28-5,57.66C474.14,477.94,458.23,532.27,457.38,539.06Z" opacity="0.2"/><path d="M501,162.1l9-.28,2.36,10s-14.46,3.7-16.17,13.13H419.59V167.24l16.3.85Z" fill="#e6e7e8"/><path d="M422.16,167.36s.86-17.27,4.29-16.2l22.67,10.94s-4.67,9-19.67,5.57Z" fill="#0071f2"/><path d="M422.16,167.36s.86-17.27,4.29-16.2l22.67,10.94s-4.67,9-19.67,5.57Z" opacity="0.2"/><path d="M496.16,185h17.29l-.58-13.43S497.3,174,496.16,185Z" fill="#0071f2"/><path d="M429.45,143.86l23.23,4.31v-4.24s-16.15-6.43-16.82-34.49c0,0-.92-13.88,9.48-28.76,0,0-3.56-1.71-.75-10.08,0,0-13.42-2.61-13.42,7.29A10.38,10.38,0,0,1,441.3,72a.15.15,0,0,1,0,.29c-2.47.9-10.31,4.71-11.81,17.61a12,12,0,0,1-.28,1.59c-1.28,4.92-8.25,31.6-11.16,36.07,0,0,6.64-9.21,11.36-26.78,0,0-7.08,30.21-5.15,41.57,0,0,1.07-20,5.15-26.42C429.45,116,427.16,143.44,429.45,143.86Z" fill="#2f2e41"/><path d="M501,148.17l-17.95,11.77s13.25,5.39,26.51,2.16C509.58,162.1,508.21,153.49,501,148.17Z" fill="#0071f2"/><path d="M501,148.17l-17.95,11.77s13.25,5.39,26.51,2.16C509.58,162.1,508.21,153.49,501,148.17Z" opacity="0.2"/><path d="M501,148.17S512.16,156,513.45,185H528l-3.86-6.72s7.29-3.28,11.14-6.71Z" fill="#0071f2"/><path d="M501,148.17S512.16,156,513.45,185H528l-3.86-6.72s7.29-3.28,11.14-6.71Z" fill="#fff" opacity="0.2"/><path d="M484.11,109.43c0,10.47-3,19.89-7.7,26.5-4.3,6-10.07,9.69-16.43,9.69a16.51,16.51,0,0,1-5.79-1.07l-.43-.15-.59-.24-.36-.17h0l-.13-.06c-9.75-4.65-16.82-18.33-16.82-34.5,0-20,10.81-36.19,24.13-36.19S484.11,89.45,484.11,109.43Z" fill="#f9b499"/><path d="M451.94,88.83s-15.08-10.56-5.53-20.61c0,0,21.23-18.87,43.12,7.6a33.21,33.21,0,0,0,7.34,6.71c.72.47,1.46.91,2.17,1.28a11.53,11.53,0,0,1,5.44,6.12c3.88,10,10.22,33-2.28,55.7a89,89,0,0,0,4-36.19s-4,29.65-7.54,36.19c0,0-18.28,5.05-34.37,2.54a45.88,45.88,0,0,0,18.35-26.4s2.13-3.72,1.44-12.33A219,219,0,0,1,451.94,88.83Z" fill="#2f2e41"/><path d="M452.68,143.93v12.6s-4.38,13.71-23.23,11.14c0,0,12,24.86,39,23.57,0,0,18.11.18,32.26-28.11,0,0-14.59.35-21.49-7.19a11.23,11.23,0,0,1-2.81-7.6l-.05-12.41S470.33,148.9,452.68,143.93Z" fill="#f9b499"/><path d="M485.07,160.06s-22.45,1.7-32.4-16.13l.13.06h0a2.06,2.06,0,0,0,.36.17l.59.24a16.53,16.53,0,0,0,6.22,1.22c6.36,0,12.08-3.68,16.38-9.69l0,12.38a11.45,11.45,0,0,0,3,7.84A16.94,16.94,0,0,0,485.07,160.06Z" fill="#f7a48b"/><path d="M422.16,167.36s1-17.33,4.29-16.2c0,0-4.93-3-14.36,13.73,0,0-5.79,12.21-16.5,11.78,0,0-6,.72-8.57,8.29h32.57V167.24Z" fill="#0071f2"/><path d="M422.16,167.36s1-17.33,4.29-16.2c0,0-4.93-3-14.36,13.73,0,0-5.79,12.21-16.5,11.78,0,0-6,.72-8.57,8.29h32.57V167.24Z" fill="#fff" opacity="0.2"/><path d="M535.3,185H528l-3.86-6.72,8.52-4.71A30.66,30.66,0,0,1,535.3,185Z" fill="#0071f2"/><rect x="353.16" y="182.24" width="225.43" height="141.43" fill="#2166bf"/><rect x="353.16" y="182.24" width="225.43" height="141.43" fill="#fff" opacity="0.5"/><rect x="361.73" y="189.53" width="209.57" height="126.86" fill="#00458a"/><path d="M361.73,323.67v15s18.43,10.72,29.57,0v-15Z" fill="#0071f2"/><path d="M519.87,323.67v15s18.86,15,27.86,0v-15Z" fill="#0071f2"/><path d="M483,323.67v5.15s41.14,18.42,36.85,51c0,0,6.43-12-4.28-56.15Z" fill="#0071f2"/><path d="M395.16,331.82s1.57-4.43,5.29,1l16.14,22.57V323.67H395.15Z" fill="#0071f2"/><path d="M387,382.1s4-17.64,4.88-29.28L403,351.39s7.14,11,8.14,12.43C411.16,363.82,409.87,371.82,387,382.1Z" fill="#0071f2"/><path d="M402.15,323.67s23.62,58.6,40.28,86.36c0,0,1.28,5.12-2.56,11.53,0,0-17.51,27.33-13.67,70.9l3.42,45.27s11.1,3,18.79,0c0,0-1.71-43.14,19.65-91.83,0,0,9-17.51,5.12-38L457,323.67Z" fill="#2f2e41"/><path d="M502.51,239.4s9.92,36,21.65,29.75c0,0,32.33-24.13,47.14-47.26V189.53h-9s-3,6.25-2.32,18.15c0,0-24.78,30.4-33.71,34.7,0,0-8.59-34-6.27-52.85H403s2.76,49.87,3.69,67.72c0,0-13.8,36-7.64,59.14h98.46s6.28-29.4-4-44.93c0,0-3.69-5-.95-8.67a18,18,0,0,0,2.39-4C497.05,253.73,501.27,243.12,502.51,239.4Z" fill="#0071f2" opacity="0.4"/><path d="M416.59,189.53s-1.34,43.78-4,57.71a10.89,10.89,0,0,1-2.29,4.85,8.2,8.2,0,0,0-1.55,2.72,2.47,2.47,0,0,0,2.75,3.1,15.14,15.14,0,0,1,6.19.33s5.1,2.7,4.79-1.26a3.91,3.91,0,0,0-1-2.18,13.25,13.25,0,0,1-3-10.2s4.77-50.5,3.64-55.07Z" fill="#fff" opacity="0.2"/><path d="M422.46,316.39H403.3s.79-29.67,4.7-43.69a7.32,7.32,0,0,0,.06-3.83c-.61-2.34-1.26-6.5.56-9.73,0,0,11,2.39,13.84,3.82,0,0,.56,5.71-2.87,8,0,0-4.29,16-3,22.28,0,0,4.17,2.58,5.87,0,0,0,.27-4.28,5.7-3.42,0,0,5.43-.58,0-18.58,0,0-7.46-12.28,2.41-14.85,0,0,7.47-5.15,12.67,11.43,0,0,5.38,11.42,9.44,12,0,0,.62-6.47,3.19-4.81,0,0,4,.23,5.43,3.09,0,0,4.18,2.57,7.09,0,0,0,7.68-11.07,18.34-4.57,0,0,15.14,14.29,0,25.43,0,0-13.14,2.57-9.71,8,0,0,3.71,7.43,3.43,9.43H455.87s-4.89-7.72-2-8.29c0,0,11.16,2,7.73-6a2.09,2.09,0,0,1,2-2.86s11.48-3.42.28-11.42c0,0-6.85-8.76-19.71-1.81,0,0-8,12.95,5.14,19.81,0,0,5.43,3.14-.57,6.85,0,0-20.28,7.43-20.57-10.57,0,0-7.12,1.14-5.7,6.57Z" fill="#fff" opacity="0.2"/><path d="M405.87,316.39s3.36-41,6.56-48.29v24.14s-4.86,1.29-3.28,12.72l-1.28,11.43Z" opacity="0.2"/><polygon points="410.88 316.39 410.88 310.81 412.43 311.67 413.16 316.39 410.88 316.39" opacity="0.2"/><rect x="202.76" y="555.81" width="99.61" height="43.71" fill="#bcbec0"/><rect x="353.16" y="528.67" width="9.06" height="7.08" fill="#a7a9ac"/><rect x="357.69" y="528.67" width="4.53" height="7.08" fill="#bcbec0"/><rect x="353.16" y="552.26" width="9.06" height="7.08" fill="#a7a9ac"/><rect x="357.69" y="552.26" width="4.53" height="7.08" fill="#bcbec0"/><rect x="353.16" y="585.59" width="9.06" height="7.08" fill="#bcbec0"/><rect x="357.69" y="585.59" width="4.53" height="7.08" fill="#a7a9ac"/><polygon points="368.56 595.82 368.56 591.53 338.59 591.53 326.89 555.81 302.38 555.81 302.38 561.53 321.66 561.53 333.02 595.82 368.56 595.82" fill="#a7a9ac"/><path d="M291.55,364.82H245.16V539.06H307.3V380.57A15.75,15.75,0,0,0,291.55,364.82ZM302,392.67H249V371.24H292.2A9.76,9.76,0,0,1,302,381Z" fill="#bcbec0"/><path d="M221.36,415.1v71.28a15.69,15.69,0,0,0,15.69,15.69h8.11v-6.36h-5.53a11.12,11.12,0,0,1-11.12-11.12V415.1Z" fill="#d1d3d4"/><polygon points="99.02 294.96 212.16 401.53 221.36 389.56 111.88 287.53 99.02 294.96" fill="#d1d3d4"/><circle cx="99.02" cy="287.53" r="14.49" fill="#bcbec0"/><circle cx="99.02" cy="287.53" r="5.71" opacity="0.2"/><circle cx="151.73" cy="262.52" r="14.49" fill="#bcbec0"/><circle cx="151.73" cy="262.52" r="5.71" opacity="0.2"/><circle cx="107.8" cy="244.65" r="14.49" fill="#bcbec0"/><circle cx="107.8" cy="244.65" r="5.71" opacity="0.2"/><path d="M320,170.24c-7.71-3.72-17.14.86-17.14.86L197.44,211.67c-9.43,3.14-12.18,16.16-12.18,16.16s-3.12-8-13.32-8.79c0,0,5.38-1.35,10-8.7a18.83,18.83,0,0,1,8.27-7.36,16.48,16.48,0,0,1,3.23-1L301.15,161.1s8.58-3.15,11.43-8.58" fill="#d1d3d4"/><path d="M316.87,152.24,312,156.81c-4.86,4.57-17.71,9.14-17.71,9.14L193.44,204.52c-5.71.86-9.43,6.57-9.43,6.57a18.73,18.73,0,0,1-8.3,8.64s7.17,2.45,8.8,6.66c0,0-1.64-11.3,11.79-16.72l100-38.29s11.89-4.9,15.94-4.45Z" opacity="0.2"/><polygon points="117.11 233.53 125.35 226.39 163.15 225 160.19 231.96 128.66 231.96 121.25 239.24 117.11 233.53" fill="#d1d3d4"/><rect x="249.02" y="409.37" width="52.93" height="17.69" opacity="0.2"/><path d="M429.45,229.19l-3,26.44a43.52,43.52,0,0,1,9.41-4.51Z" opacity="0.2"/><path d="M499.92,198.35l15.54,51.72s-2.87,6.91,1,9.07c0,0-.52,7.9,3.13,7.38,0,0,3,1.05,4.53-3.13,0,0,22.37-13.32,36.73-34.2l10.41-14.63v-25H564s-4.18,11.2-1.57,19.81c0,0-29,33.68-35.24,39.69,0,0-4.44,3.39-6.27-3.92L504.8,189.53H435.64s-8.9,39.27,6,56.5a3.25,3.25,0,0,0,4.05.68c3.77-2.09,11.54-8.46,20.84-27.45,0,0,3.25,7.31,6.64-.78,0,0,9.4,14.62,12.53,25.07,0,0,3.44,7.59,8.3,4.24a6.63,6.63,0,0,0,2.63-4,162.18,162.18,0,0,0,3-45.34A.15.15,0,0,1,499.92,198.35Z" fill="#fff" opacity="0.2"/><path d="M528.25,255.63s28.46-36.1,34.46-40.8C562.71,214.83,550.18,245.27,528.25,255.63Z" opacity="0.2"/><polygon points="566.37 189.53 565.33 200.96 571.3 191.29 571.3 189.53 566.37 189.53" fill="#2166bf" opacity="0.4"/><path d="M437.57,189.53s12.47,11,24.71,7.87c0,0,4-1.5,2-7.87Z" opacity="0.2"/><path d="M472.3,189.53c-.45,0-2.48,5.46,4.11,7.2,1.68.45,13.47-1.49,18.92-7.2Z" opacity="0.2"/><path d="M438.37,195.71a1.51,1.51,0,0,0-1.79.18c-.78.72-1.38,2.09,1,4.18,0,0,10,10,22.93,6.46a7.06,7.06,0,0,0,4-3.28,1.22,1.22,0,0,0-1.29-1.68C459.45,202.06,450,202.38,438.37,195.71Z" opacity="0.2"/><path d="M474.71,200.19a1.33,1.33,0,0,0-1.27,1c-.22.94,0,2.3,2.85,2.79,0,0,12.58,3,20.55-6.07a6.32,6.32,0,0,0,1.35-4.47,1.13,1.13,0,0,0-1.82-.69C493.81,194.93,486.79,199.78,474.71,200.19Z" opacity="0.2"/><path d="M436.18,203c2.14,2.62,10.71,11.18,27.77,5.5a.28.28,0,0,1,.35.38c-1,2-5.11,8.14-16.65,6.4a15,15,0,0,1-7.17-3,12.67,12.67,0,0,1-4.79-9.08A.28.28,0,0,1,436.18,203Z" opacity="0.2"/><path d="M474,209.29c3.26.08,17.92,0,23.4-6.72a.18.18,0,0,1,.32.18c-1.76,4.35-8.5,17.13-23.82,6.89A.19.19,0,0,1,474,209.29Z" opacity="0.2"/><path d="M435.86,214c1,1.75,5.38,7.63,19.56,3.72a.12.12,0,0,1,.16.13c-.16,1.06-1.32,6.36-8.39,7.27A10.28,10.28,0,0,1,440.9,224c-2.48-1.35-5.4-4.18-5.28-10A.13.13,0,0,1,435.86,214Z" opacity="0.2"/><path d="M477.8,216.57c1.51,1.3,7.69,5.28,19.63-3.32a.13.13,0,0,1,.2.07c.21,1.05,1,6.42-5.34,9.73a10.38,10.38,0,0,1-6.27,1.19c-2.79-.41-6.52-2-8.43-7.52A.13.13,0,0,1,477.8,216.57Z" opacity="0.2"/><path d="M437.57,226.68s-2.75-.7,0,3.55c0,0,2.91,5.19,8,4,0,0,5.44-1.92,5.61-5.77a.25.25,0,0,0-.34-.24C449.15,228.93,441.42,231.69,437.57,226.68Z" opacity="0.2"/><path d="M439.38,236.43s-1.63-.16.3,2c0,0,2.11,2.71,4.92,1.59,0,0,2.93-1.56,2.7-3.77a.14.14,0,0,0-.22-.1C446.16,236.71,442,239,439.38,236.43Z" opacity="0.2"/><path d="M441.35,241.18s-1.11-.12.21,1.38c0,0,1.44,1.86,3.37,1.09,0,0,2-1.07,1.85-2.58a.11.11,0,0,0-.15-.08C446,241.37,443.15,242.9,441.35,241.18Z" opacity="0.2"/><path d="M488.5,242s-1.05-.39-.16,1.39c0,0,.92,2.17,3,1.92,0,0,2.22-.52,2.45-2a.1.1,0,0,0-.12-.11C492.94,243.34,489.79,244.09,488.5,242Z" opacity="0.2"/><path d="M488.32,236.43s-1.63-.16.3,2c0,0,2.11,2.71,4.92,1.59,0,0,2.93-1.56,2.7-3.77a.14.14,0,0,0-.22-.1C495.1,236.71,490.94,239,488.32,236.43Z" opacity="0.2"/><path d="M483.39,227.55s-2.83.21,1.14,3.35c0,0,4.43,4,8.89,1.22,0,0,4.54-3.58,3.46-7.28a.25.25,0,0,0-.4-.11C495.08,225.94,488.65,231,483.39,227.55Z" opacity="0.2"/><rect x="567.45" y="176.81" width="3.86" height="7.01" rx="1.93" fill="#f9b499"/><path d="M583.27,179.59s2.6,6-4.68,11.7v-5.53S584.08,181.43,583.27,179.59Z" fill="#f7a48b"/><rect x="576.59" y="177.29" width="3.86" height="12.13" rx="1.93" transform="translate(362.65 -383.83) rotate(51.58)" fill="#f9b499"/><path d="M587.47,190.84a2.49,2.49,0,0,0-1.42-2.25c-.77-.32-1.95-.32-3.6.94,0,0-11,7-9.09,9.37a1.77,1.77,0,0,1,.15,1.7,3.67,3.67,0,0,0,.06,3.32,1.67,1.67,0,0,1,.16,1.48c-.46,1.43-1,4,1,4.49,0,0,5.84,1,8.9,0a2.36,2.36,0,0,0,.85-3.88l-.1-.09c-.33-.3-.66-.59-.66-1v-.12a1.1,1.1,0,0,1,1.1-1.09c.95,0,2.21-.64,2.34-3.39,0,0,0-2.52-1.56-2.8a.73.73,0,0,1-.48-1.12C586.23,194.56,587.57,192.91,587.47,190.84Z" fill="#f9b499"/><path d="M335,534.53c-3.64-13.33,4.47-52.1,7-63.67a70.75,70.75,0,0,0,1.55-10.2c.9-12.62-1.95-21.88-8.48-27.52-10.61-9.19-27.52-5.63-27.69-5.59l-.21-1c.17,0,17.57-3.7,28.56,5.81,6.77,5.86,9.74,15.4,8.82,28.35A70.16,70.16,0,0,1,343,471.08c-2.55,11.51-10.63,50.08-7.05,63.18Z" fill="#2f2e41"/><path d="M346.26,534.55c-3.73-11.31,2.5-38.9,5.35-50.24a40,40,0,0,0,1.29-10.61c-.23-10.86-3.74-19.25-10.43-24.95-12.93-11-33.63-8.33-33.83-8.31l-.14-1c.21,0,21.34-2.79,34.61,8.53,6.92,5.9,10.55,14.54,10.79,25.69a41.11,41.11,0,0,1-1.32,10.88c-2.83,11.26-9,38.62-5.37,49.69Z" fill="#0071f2"/><path d="M200.42,419a43.82,43.82,0,0,1-18-4C136.7,394.51,104.57,302,104.25,301l1-.33c.32.93,32.31,93.09,77.61,113.35,11.3,5.06,22.61,5.26,33.64.6l.39.92A41.91,41.91,0,0,1,200.42,419Z" fill="#0071f2"/><path d="M165.48,464.62a45.6,45.6,0,0,1-31.78-12.94c-26.93-26.16-35.06-65.49-37.14-93.88a260.28,260.28,0,0,1,2-55.86l1,.17a258.66,258.66,0,0,0-2,55.64C99.63,386,107.69,425,134.4,451c15.24,14.79,38.72,16.85,55.85,4.89,11.41-8,20.93-21.11,28.3-39.06l.92.38c-7.44,18.13-17.08,31.42-28.65,39.5A44.09,44.09,0,0,1,165.48,464.62Z" fill="#2f2e41"/><path d="M98.75,288c-.26-.16-26.32-16.64-22.43-43.63a15.18,15.18,0,0,1,8-11.55c5.3-2.67,13.75-2.82,23.9,11.59l-.81.57C99.68,234,91.86,230.09,84.76,233.66a14.22,14.22,0,0,0-7.45,10.8c-3.79,26.34,21.71,42.48,22,42.64Z" fill="#0071f2"/><path d="M98.88,288c-1.59-.45-39-11.28-47.56-32.43-2.89-7.13-2.11-14.63,2.33-22.3,0-.06,5.25-11.91,16.65-13.44,11-1.49,23.73,6.76,37.89,24.49l-.78.63c-13.93-17.44-26.37-25.56-37-24.13-10.86,1.46-15.85,12.79-15.9,12.9-4.3,7.44-5.06,14.65-2.3,21.47,8.39,20.7,46.53,31.74,46.91,31.85Z" fill="#2f2e41"/><path d="M290.59,184.65c-1-.4-25-10-29.55-25.8-1.74-6.1-.29-12.32,4.31-18.48l.08-.08c.34-.29,8.51-7,17.66-4,8.1,2.63,14.2,11.94,18.14,27.65l-1,.25c-3.85-15.36-9.73-24.43-17.48-26.95-8.3-2.71-16,3.26-16.66,3.78-4.38,5.88-5.76,11.79-4.11,17.56,4.37,15.33,28.7,25,28.94,25.14Z" fill="#0071f2"/><path d="M292.9,180.21c-1.7-1.26-41.76-31.07-40.22-58.19.54-9.68,6.43-17.82,17.49-24.18.19-.09,16.07-7.51,30.74.4,12.39,6.69,20.3,22,23.51,45.56l-1,.13c-3.16-23.21-10.9-38.28-23-44.81-14.22-7.67-29.64-.46-29.8-.39-10.71,6.16-16.43,14-16.95,23.34-1.51,26.58,39.4,57,39.82,57.33Z" fill="#2f2e41"/><path d="M339.21,246.23a40.19,40.19,0,0,1-11.95-1.5,9.43,9.43,0,0,1-4.9-14.18c8.68-13,33.34-26.44,43.54-31.62A86.6,86.6,0,0,0,383,187.62c8.75-7.49,13.61-14.74,14.46-21.55a15,15,0,0,0-14-16.75c-12.31-.64-14.51,19.75-14.53,20l-1-.09c0-.22,2.24-20.88,14.93-20.88l.66,0a16,16,0,0,1,15,17.88c-.89,7.06-5.87,14.52-14.81,22.18a87.43,87.43,0,0,1-17.32,11.44c-10.13,5.14-34.61,18.48-43.16,31.28a8.37,8.37,0,0,0-.93,7.48,8.22,8.22,0,0,0,5.31,5.19c5.67,1.81,14.26,1.94,25.52.38l.14,1A103,103,0,0,1,339.21,246.23Z" fill="#0071f2"/><path d="M340.27,168.47c-.11-3.55-1.27-6.2-3.43-7.87-4.24-3.27-11-1.77-11.08-1.76l-.22-1c.29-.07,7.3-1.61,11.91,1.94,2.41,1.86,3.7,4.76,3.82,8.62Z" fill="#2f2e41"/><path d="M368.72,171.59l-1-.13c1.25-9.47-.68-16.61-5.74-21.21-10.82-9.84-32.52-5-32.74-4.93l-.22-1c.91-.21,22.43-5,33.63,5.16C368,154.34,370,161.77,368.72,171.59Z" fill="#0071f2"/><ellipse cx="487.88" cy="115.97" rx="6.79" ry="9.05" fill="#f9b499"/><path d="M450.19,75.51a10,10,0,0,0,2.17,4.79,23.41,23.41,0,0,0,1.71,2c.65.6,1.26,1.24,1.95,1.8a50.09,50.09,0,0,0,8.87,5.79c.78.41,1.59.78,2.38,1.17s1.59.78,2.41,1.11l4.94,2.13a53.6,53.6,0,0,1,9.49,5.52,38.2,38.2,0,0,1,8.15,7.5,39.14,39.14,0,0,1,5.52,9.68c.36.85.6,1.77.89,2.65s.47,1.81.59,2.74a25.88,25.88,0,0,1,.31,5.56,24.26,24.26,0,0,1-3.16,10.37c.26-.86.56-1.71.79-2.56s.45-1.72.54-2.6l.18-1.3.08-1.32a22.55,22.55,0,0,0,0-2.6,25.75,25.75,0,0,0-2.74-9.86,39.26,39.26,0,0,0-5.81-8.46,71.06,71.06,0,0,0-7.19-7.44,50,50,0,0,0-8.64-5.87l-4.76-2.46c-.81-.4-1.6-.84-2.38-1.3s-1.57-.89-2.34-1.36a50.9,50.9,0,0,1-8.63-6.54c-.67-.61-1.25-1.32-1.86-2a21.5,21.5,0,0,1-1.61-2.18A10.18,10.18,0,0,1,450.19,75.51Z" fill="#2f2e41"/><path d="M450.19,75.51a10,10,0,0,0,2.17,4.79,23.41,23.41,0,0,0,1.71,2c.65.6,1.26,1.24,1.95,1.8a50.09,50.09,0,0,0,8.87,5.79c.78.41,1.59.78,2.38,1.17s1.59.78,2.41,1.11l4.94,2.13a53.6,53.6,0,0,1,9.49,5.52,38.2,38.2,0,0,1,8.15,7.5,39.14,39.14,0,0,1,5.52,9.68c.36.85.6,1.77.89,2.65s.47,1.81.59,2.74a25.88,25.88,0,0,1,.31,5.56,24.26,24.26,0,0,1-3.16,10.37c.26-.86.56-1.71.79-2.56s.45-1.72.54-2.6l.18-1.3.08-1.32a22.55,22.55,0,0,0,0-2.6,25.75,25.75,0,0,0-2.74-9.86,39.26,39.26,0,0,0-5.81-8.46,71.06,71.06,0,0,0-7.19-7.44,50,50,0,0,0-8.64-5.87l-4.76-2.46c-.81-.4-1.6-.84-2.38-1.3s-1.57-.89-2.34-1.36a50.9,50.9,0,0,1-8.63-6.54c-.67-.61-1.25-1.32-1.86-2a21.5,21.5,0,0,1-1.61-2.18A10.18,10.18,0,0,1,450.19,75.51Z" opacity="0.2"/><path d="M395.16,331.82s-6.43,16.28-1.29,34.57c0,0,5.43,17.14,9.72,15.71,0,0,2.14.43-1.86-11.14,0,0,2.57,6.28,5,5.43,0,0,3-.15-2.71-9.15,0,0,2.43,3.86,4.14,3,0,0,2.51-.59-2.43-6.39a15.2,15.2,0,0,1-3.48-7,7.08,7.08,0,0,1,.77-5.43s4.75,14.43,8.14,12.43c0,0,2.29.79.71-6.82,0,0-1.57-6.51-.35-8.71l-11.07-15.47S397.45,327.39,395.16,331.82Z" fill="#f9b499"/><line x1="574.76" y1="199.23" x2="584.62" y2="196.88" fill="none" stroke="#f7a48b" stroke-miterlimit="10"/><line x1="574.4" y1="204.72" x2="583.01" y2="204.3" fill="none" stroke="#f7a48b" stroke-miterlimit="10"/><path d="M400.7,369.08a34.47,34.47,0,0,1-3.2-17" fill="none" stroke="#f7a48b" stroke-miterlimit="10"/><path d="M404,367.24s-1.71-2.26-3.32-9.55" fill="none" stroke="#f7a48b" stroke-miterlimit="10"/><rect x="195.97" y="595.82" width="172.6" height="12.86" fill="#d1d3d4"/><rect x="195.97" y="534.4" width="172.6" height="21.41" fill="#d1d3d4"/><circle cx="224.72" cy="403.66" r="14.49" fill="#bcbec0"/><circle cx="224.72" cy="403.66" r="5.71" opacity="0.2"/><path d="M203,547.84l-.4-.91c9.31-4.09,32.83-2.9,39.82-2.44a5.23,5.23,0,0,0,3.85-1.21,4.78,4.78,0,0,0,1.56-3.68c.2-10.28-20.52-31.14-26.87-37.29a18.49,18.49,0,0,1-4.18-5.93c-1.82-4.16-2.16-7.37-1-9.55a5.86,5.86,0,0,1,4.38-2.91A10.5,10.5,0,0,1,227,485c15.17,8,17.77,6.71,17.88,6.66l.08-.08H245c2.11-.63,3.23-1.53,3.33-2.66.37-4-10.93-10.71-15.32-12.95-8.05-4.55-12.36-9.46-12.83-14.63-.53-5.8,4-9.66,4.2-9.83l.12-.07c30.82-13.67,33.31-16.41,33.41-16.52,3.16-3.89,4.12-7.65,2.87-11.2-4.53-12.81-35.87-19.54-36.18-19.61l.2-1c1.32.28,32.21,6.92,36.92,20.25,1.38,3.91.36,8-3,12.15-.1.18-2.27,2.83-33.73,16.79-.48.43-4.25,4-3.79,8.94.44,4.82,4.58,9.47,12.31,13.83,1.65.85,16.33,8.53,15.84,13.92-.14,1.57-1.48,2.75-4,3.51-.74.43-4.18,1.12-18.86-6.64a9.55,9.55,0,0,0-6.22-1,4.93,4.93,0,0,0-3.69,2.4c-1,1.89-.64,4.82,1,8.68a17.37,17.37,0,0,0,4,5.61c8.24,8,27.38,27.63,27.18,38a5.81,5.81,0,0,1-1.89,4.4,6.15,6.15,0,0,1-4.59,1.47C235.38,545,212.07,543.85,203,547.84Z" fill="#0071f2"/><circle cx="233.26" cy="361.87" r="14.49" fill="#bcbec0"/><circle cx="233.26" cy="361.87" r="5.71" opacity="0.2"/><circle cx="171.94" cy="233.53" r="14.49" fill="#bcbec0"/><circle cx="171.94" cy="233.53" r="5.71" opacity="0.2"/><circle cx="323.93" cy="158.36" r="14.49" fill="#bcbec0"/><circle cx="323.93" cy="158.36" r="5.71" opacity="0.2"/><circle cx="304.66" cy="188.1" r="9.93" fill="#d1d3d4"/><circle cx="304.66" cy="188.1" r="3.91" opacity="0.2"/><rect x="336.45" y="168.45" width="6.79" height="6.79" fill="#d1d3d4"/><rect x="364.83" y="168.14" width="6.79" height="7.1" fill="#d1d3d4"/><path d="M429.62,537.73s3.42,13.24,0,26.91c0,0-6,30.32-4.27,33.74,0,0,20.07,2.56,26.48,0,0,0-4-22.56-4.46-41.35,0,0,1-11.38,1-19.3C448.41,537.73,442,540.5,429.62,537.73Z" fill="#f9b499"/><path d="M430.5,563.83c-.29,0-.59,0-.88,0-2.39-.12-3.61-.65-3.84-1.65-.46-2,4.24-4.76,5.12-5.25l-.13,1.28c-2.23,1.25-4.21,2.93-4,3.75,0,.17.37.74,2.92.87a16.58,16.58,0,0,0,6.51-1c3.32-1.19,8.33-3.59,11.34-6.7l-.11,1.45c-3.15,3.25-7.47,5-10.89,6.19A17.87,17.87,0,0,1,430.5,563.83Z" fill="#0071f2"/><rect x="437.93" y="561.48" width="1" height="38.03" fill="#0071f2"/><path d="M425.35,598.38s-2.07,5.87,4.9,9a15.3,15.3,0,0,0,5.33,1.23c5.28.32,17.79,0,16.25-10.22C451.83,598.38,445.23,600.25,425.35,598.38Z" fill="#0071f2"/><path d="M463.93,559.21a2.67,2.67,0,0,0-1.46-1.78c-1.87-.89-4.53.24-4.65.29l.12,1s2.65-1.12,4.1-.43a1.67,1.67,0,0,1,.91,1.07,5.07,5.07,0,0,1-1.44,3.64c-1.59,1.79-5.24,3.94-13.57,4.05v1a37.26,37.26,0,0,0,6.15-.55l2.57,24.32,1-.1-2.58-24.4c3.25-.72,5.67-1.94,7.2-3.69A6,6,0,0,0,463.93,559.21Z" fill="#0071f2"/><path d="M463.93,559.21a2.67,2.67,0,0,0-1.46-1.78c-1.87-.89-4.53.24-4.65.29l.12,1s2.65-1.12,4.1-.43a1.67,1.67,0,0,1,.91,1.07,5.07,5.07,0,0,1-1.44,3.64c-1.59,1.79-5.24,3.94-13.57,4.05v1a37.26,37.26,0,0,0,6.15-.55l2.57,24.32,1-.1-2.58-24.4c3.25-.72,5.67-1.94,7.2-3.69A6,6,0,0,0,463.93,559.21Z" opacity="0.2"/><path d="M765,122.31c-8,26.71,18.41,36,8.81,76.5,32.88-28.45,11.13-65.15-2.36-80.06C771.42,118.75,770.1,117.5,765,122.31Z" fill="#2f2e41"/><path d="M765.18,105.65a7,7,0,0,0-7.47,6.6s4.83,5.2,5.29,8.16,4,5.83,8,1.76-2.61-6.84-4.37-16.26A6.93,6.93,0,0,0,765.18,105.65Z" fill="#0071f2"/><path d="M776.23,605.84h15.43s2.59-24.45,5.29-40l-19.47-1.42C778,575.06,776.23,605.84,776.23,605.84Z" fill="#fa8580"/><path d="M677.05,606.32l15.42-.69s4-24.66,7.7-40.35l-19.38-.56C680.7,575.35,677.05,606.32,677.05,606.32Z" fill="#fa8580"/><path d="M757.31,613.26a22.68,22.68,0,0,0,15.59-8.81,3.68,3.68,0,0,1,3-1.5h15.7a3.2,3.2,0,0,1,3.17,2.59c.54,2.63,1.11,4.85,1.48,6.61.95,4.76.81,9-3.53,9-5.19.13-6.67-.68-13.14-.45-7.56.24-6.61.45-20,.45C754.24,621.15,750,614.18,757.31,613.26Z" fill="#0071f2"/><path d="M655.43,609a28.74,28.74,0,0,0,18.31-6.52,4.6,4.6,0,0,1,3.43-1.07l15.58,2,.27,0a2.49,2.49,0,0,1,2,2.86c-.32,2.63-.46,4.81-.67,6.57-.57,4.76-2.06,8.74-6.4,8.28-5.18-.52-6.39-1.49-12.89-2.09-7.58-.71-6.7-.39-20-2.06C649.79,616.38,647.89,609.05,655.43,609Z" fill="#0071f2"/><path d="M757,261.8s2.27,59.38-36.49,155.05c5.69,91.72-23.86,164.29-23.86,164.29-2.62,1.85-17.81,3.68-18.16.79,0,0,2-108.55,6.66-165.08-1.06-60.19,11.13-155,11.13-155Z" fill="#0071f2"/><path d="M724.53,307.77c.29,1.37,8.41,41.56,9.84,71.6,5-14.91,8.82-28.63,11.82-41Z" opacity="0.2"/><path d="M766.34,261.78s34.59,31.31,23.67,162.1c30.19,53.15,6.44,157.74,6.44,157.74-6.27,1.94-17.28,1.76-20.36,0,3.2-36.69-13-105-24.51-160.18-11-52.57-38.76-159.64-38.76-159.64Z" fill="#0071f2"/><path d="M716,178.16c-.23.62-.34.88-.51,1.27l-.58,1.18-.92,2c-.62,1.29-1.22,2.54-1.87,3.79-1.28,2.48-2.64,4.88-4.1,7.24a115.17,115.17,0,0,1-9.75,13.48,87.18,87.18,0,0,1-26.19,21.39c-1.29.65-2.58,1.3-3.9,1.89l-1,.44c-.38.15-.52.24-1.23.51a19.09,19.09,0,0,1-3.63,1,25.36,25.36,0,0,1-12.81-1,42.33,42.33,0,0,1-9-4.3,70.65,70.65,0,0,1-7.2-5.07,137.86,137.86,0,0,1-12.18-11c-1.86-1.9-3.77-3.8-5.53-5.76l-2.71-2.94c-.92-1-1.75-1.92-2.79-3.15l20.65-14.87c.41.75,1.06,1.78,1.68,2.73s1.27,1.88,1.92,2.82c1.34,1.9,2.69,3.66,4.14,5.42a82.13,82.13,0,0,0,9,9.61,49.11,49.11,0,0,0,4.7,3.68,21.09,21.09,0,0,0,4.21,2.2,4,4,0,0,0,1.76.37h0l.46-.19.71-.32c1-.41,1.85-.88,2.75-1.36A58.3,58.3,0,0,0,681,193,72.44,72.44,0,0,0,687.89,182c1-1.92,1.9-3.89,2.73-5.87.4-1,.83-2,1.14-3l.48-1.44.21-.69a1,1,0,0,0,.12-.46Z" fill="#0071f2"/><path d="M716,178.16c-.23.62-.34.88-.51,1.27l-.58,1.18-.92,2c-.62,1.29-1.22,2.54-1.87,3.79-1.28,2.48-2.64,4.88-4.1,7.24a115.17,115.17,0,0,1-9.75,13.48,87.18,87.18,0,0,1-26.19,21.39c-1.29.65-2.58,1.3-3.9,1.89l-1,.44c-.38.15-.52.24-1.23.51a19.09,19.09,0,0,1-3.63,1,25.36,25.36,0,0,1-12.81-1,42.33,42.33,0,0,1-9-4.3,70.65,70.65,0,0,1-7.2-5.07,137.86,137.86,0,0,1-12.18-11c-1.86-1.9-3.77-3.8-5.53-5.76l-2.71-2.94c-.92-1-1.75-1.92-2.79-3.15l20.65-14.87c.41.75,1.06,1.78,1.68,2.73s1.27,1.88,1.92,2.82c1.34,1.9,2.69,3.66,4.14,5.42a82.13,82.13,0,0,0,9,9.61,49.11,49.11,0,0,0,4.7,3.68,21.09,21.09,0,0,0,4.21,2.2,4,4,0,0,0,1.76.37h0l.46-.19.71-.32c1-.41,1.85-.88,2.75-1.36A58.3,58.3,0,0,0,681,193,72.44,72.44,0,0,0,687.89,182c1-1.92,1.9-3.89,2.73-5.87.4-1,.83-2,1.14-3l.48-1.44.21-.69a1,1,0,0,0,.12-.46Z" fill="#fff" opacity="0.7" style="isolation:isolate"/><path d="M713.05,157.43c3.54-.48,7.29-.9,10.81-1.2a247.1,247.1,0,0,1,32.88,0c3.14.14,6.17.37,9,.65,10.73,1,17.46,10.62,14.45,20.63-13,43.18-15.38,65.1-13.92,84.29-24,3.1-61.44,4.9-68.84.56-3.68-21.9-6.64-36.12-7.2-49.65a289,289,0,0,1-.48-31.15C690.2,169.56,700.27,159.08,713.05,157.43Z" fill="#fff"/><path d="M696.08,267a1.65,1.65,0,0,1-1.45-1.82c.15-1.44.29-2.88.45-4.33a.34.34,0,0,1,0-.1,1.56,1.56,0,0,1,1.75-1.36,319,319,0,0,0,69.89,0,1.54,1.54,0,0,1,1.57,1c.58,1.39,1.16,2.78,1.76,4.17a1.62,1.62,0,0,1,.12.43,1.64,1.64,0,0,1-1.39,1.88,324.19,324.19,0,0,1-72.69.16Z" fill="#263238"/><path d="M752.65,156.53l4.55,3.52s-10,18-20.86,24.44c.84-4.79-2.64-12.83-7.05-14.34Z" fill="#0071f2" opacity="0.2" style="isolation:isolate"/><path d="M722.63,157.53l-5.28,2s-9.57,16.18.72,23.68c.32-2.73,4.9-11.54,10.18-13Z" fill="#0071f2" opacity="0.2" style="isolation:isolate"/><path d="M733,136.46c1.43,8.21,1.1,17-10.9,19.78,0,0-7.26,8.06,5.57,15.4,18.23-5.19,27.3-15.4,27.3-15.4-6.87-7-3.36-26.42-.49-37Z" fill="#f9b499"/><path d="M783.21,161.58c4.82,7.17.21,39.93-2.22,77.65s25.12,169.09,24.34,183.34c-16.63,14.27-59.14,17.09-59.14,17.09s-13.69-196.43-6.64-247.33c3.7-26.66,16.15-37.72,16.15-37.72S778.38,154.41,783.21,161.58Z" fill="#0071f2"/><path d="M783.21,161.58c4.82,7.17.21,39.93-2.22,77.65s25.12,169.09,24.34,183.34c-16.63,14.27-59.14,17.09-59.14,17.09s-13.69-196.43-6.64-247.33c3.7-26.66,16.15-37.72,16.15-37.72S778.38,154.41,783.21,161.58Z" fill="#fff" opacity="0.8" style="isolation:isolate"/><path d="M694.76,165.72c-8.21,9.43-8.71,27.22-5.18,78.3s-14.77,171.5-14.77,171.5,18,19.67,34.82,21.69C704.15,323.69,704,180,723,155.66,723,155.66,703,156.3,694.76,165.72Z" fill="#0071f2"/><path d="M694.76,165.72c-8.21,9.43-8.71,27.22-5.18,78.3s-14.77,171.5-14.77,171.5,18,19.67,34.82,21.69C704.15,323.69,704,180,723,155.66,723,155.66,703,156.3,694.76,165.72Z" fill="#fff" opacity="0.8" style="isolation:isolate"/><path d="M765.9,154.84c-4.24,4.86-8.63,13.91-10.78,18.23a10.84,10.84,0,0,0-6.68,1.18,9.92,9.92,0,0,1,5.29,1.76c-7.67,14.75-14.78,45.72-16.35,52.28-2.12-57.72,13.42-71.8,16.72-74.58C754.1,153.71,761.29,152,765.9,154.84Z" fill="#0071f2"/><path d="M705.36,175.85a18.38,18.38,0,0,1,5.5-2.06,7.72,7.72,0,0,0-5.28-.58c0-2.27,3-13.05,5.37-15.86a17.44,17.44,0,0,1,12.67-2c-11.15,19.17-14.54,72.93-14.54,72.93C704.34,200.08,704.68,179.78,705.36,175.85Z" fill="#0071f2"/><path d="M745.5,132c-.83,4.73-7.38,9.68-11.93,10.33a34.83,34.83,0,0,0-.58-5.85l12.7-10.18A15.61,15.61,0,0,1,745.5,132Z" fill="#f7a48b"/><path d="M762.67,85.77a22.25,22.25,0,0,0-28.46-13.43C716.61,78,711,103.28,712.8,119c1.92,17.42,22.06,23.94,36.72,11.61,9.74-8.2,10.75-15.47,14-32.55A22.19,22.19,0,0,0,762.67,85.77Z" fill="#f9b499"/><path d="M765.9,111.26c5.41-1.58,13.73-19.91,4.55-28.84-6.1-5.94-18.75-.44-21.34,3.17s2.8,13.55,8.09,24.23A9.28,9.28,0,0,0,765.9,111.26Z" fill="#2f2e41"/><path d="M769.44,83.14c10.82-5.92-9.62-15.27-27.39-15.27-12.76,0-24.79,4.9-18.57,11.59,4.16-5.79,16.07,12.3,29.49,4.41C753,83.87,758.63,89.06,769.44,83.14Z" fill="#2f2e41"/><path d="M762.34,109l-16.47-4.09h-2.8a.44.44,0,0,1-.34-.52.45.45,0,0,1,.52-.35H746l16.58,4.09a.44.44,0,0,1,.31.41.44.44,0,0,1-.42.46Z" fill="#fff"/><path d="M738.93,109.38l-9.36-.42A6.13,6.13,0,0,1,724,103.6a4.63,4.63,0,0,1,1.18-3.68,4.44,4.44,0,0,1,3.53-1.34l9.37.42a6.1,6.1,0,0,1,5.57,5.37,4.51,4.51,0,0,1-1.18,3.69,4.36,4.36,0,0,1-3.24,1.35Zm-13-8.88a3.7,3.7,0,0,0-.95,3,5.29,5.29,0,0,0,4.76,4.6h0l9.35.42a3.49,3.49,0,0,0,2.8-1.07,3.79,3.79,0,0,0,1-3,5.28,5.28,0,0,0-4.75-4.6l-9.38-.43h-.19A3.52,3.52,0,0,0,725.89,100.5Z" fill="#fff"/><path d="M715.87,108.44l-4.06-.17a6.15,6.15,0,0,1-5.58-5.39,4.6,4.6,0,0,1,1.2-3.69A4.49,4.49,0,0,1,711,97.84l4,.19a6.11,6.11,0,0,1,5.59,5.29,4.7,4.7,0,0,1-1.18,3.7,4.45,4.45,0,0,1-3.24,1.34Zm-4-.7-3.79-8a3.73,3.73,0,0,0-1,3,5.29,5.29,0,0,0,4.76,4.6l4.05.2a3.53,3.53,0,0,0,2.8-1.08,3.7,3.7,0,0,0,1-3,5.29,5.29,0,0,0-4.75-4.6l-4.06-.18h-.19A3.53,3.53,0,0,0,708.11,99.69Z" fill="#fff"/><path d="M724.31,103.67c-1.31-.55-3.42-1-3.85-.37v0a.41.41,0,0,1-.58.12.44.44,0,0,1-.15-.6c1-1.57,4.27-.28,4.92,0l.05,0a.41.41,0,0,1,.18.55.39.39,0,0,1-.39.26A.48.48,0,0,1,724.31,103.67Z" fill="#fff"/><path d="M763.4,104.71c-3.73-1.45-7.8,3.58-9.57,7.49-1.92,4.37-.7,9.09,3.37,8.53a12,12,0,0,0,8-5.43C767.67,111.56,767.14,106.15,763.4,104.71Z" fill="#f9b499"/><path d="M711.74,308.4l-25.83-58.7-.06-.16a1.3,1.3,0,0,1,.86-1.61l41.22-13.09a1.63,1.63,0,0,1,2,1l10.75,29.83.09.19,14.9,28.51a1.59,1.59,0,0,1,.12.27,1.29,1.29,0,0,1-.87,1.6l-41.21,13.09A1.65,1.65,0,0,1,711.74,308.4Z" fill="#fff"/><path d="M706.19,313.33l-25.65-58.44a2.9,2.9,0,0,1-.16-.41,2.83,2.83,0,0,1,1.92-3.5l43.41-13.79a3.66,3.66,0,0,1,4.34,2l25.67,58.37a3,3,0,0,1,.16.42,2.82,2.82,0,0,1-1.92,3.49l-43.42,13.8A3.66,3.66,0,0,1,706.19,313.33Z" fill="#0071f2"/><path d="M706.19,313.33l-25.65-58.44a2.9,2.9,0,0,1-.16-.41,2.83,2.83,0,0,1,1.92-3.5l43.41-13.79a3.66,3.66,0,0,1,4.34,2l25.67,58.37a3,3,0,0,1,.16.42,2.82,2.82,0,0,1-1.92,3.49l-43.42,13.8A3.66,3.66,0,0,1,706.19,313.33Z" opacity="0.3" style="isolation:isolate"/><path d="M759.81,275.21h-5.5a3.5,3.5,0,0,0-2,.66c-3.47,2.53-16.08,11.25-20.28,7.45,0,0-1.17-2.16,0-3.58,0,0-2.77-.52-2.14-3.82,0,0-2.1-.9-.68-3.73a7.54,7.54,0,0,1-2.45-3.94,2.09,2.09,0,0,1,1.36-2.3l12-4.62s-.93-3.87-6.63-6.29c0,0-2.79-2-.12-3.13,0,0,10-2,15.25,10l6.14.76A100.07,100.07,0,0,1,759.81,275.21Z" fill="#f9b499"/><line x1="728.97" y1="272.34" x2="739.11" y2="268.51" fill="none" stroke="#f7a48b" stroke-miterlimit="10"/><line x1="729.85" y1="275.92" x2="738.92" y2="272.19" fill="none" stroke="#f7a48b" stroke-miterlimit="10"/><line x1="731.99" y1="279.74" x2="740.54" y2="275.92" fill="none" stroke="#f7a48b" stroke-miterlimit="10"/><path d="M781.62,160.1l1,1,.86.88,1.64,1.76c1.06,1.18,2.12,2.34,3.12,3.52,2,2.36,4,4.79,5.78,7.26a135.42,135.42,0,0,1,10.15,15.61,94.06,94.06,0,0,1,11.93,36.38v1.66a23.22,23.22,0,0,1,0,2.36,21.05,21.05,0,0,1-.8,4.23,27.86,27.86,0,0,1-2.94,6.48,45,45,0,0,1-7,8.64,111.49,111.49,0,0,1-14.83,11.87c-5,3.47-10,6.61-15.08,9.66-2.56,1.51-5.08,3-7.65,4.49l-3.88,2.15c-1.32.74-2.53,1.44-4,2.22l-10.4-23.22c1.08-.37,2.42-.88,3.63-1.38l3.72-1.58c2.47-1.08,4.94-2.17,7.35-3.37a155.44,155.44,0,0,0,14-7.66,77.67,77.67,0,0,0,11.91-8.81,24.49,24.49,0,0,0,3.79-4.34,7.68,7.68,0,0,0,.6-1.18h0v-.12a62.31,62.31,0,0,0-1.13-7,59.24,59.24,0,0,0-2.08-6.92,72.9,72.9,0,0,0-6.4-13.29,93.13,93.13,0,0,0-9-12.33c-1.76-1.92-3.52-3.84-5.28-5.6-1-.85-1.8-1.78-2.72-2.61l-1.37-1.21-.67-.57-.55-.42Z" fill="#0071f2"/><path d="M781.62,160.1l1,1,.86.88,1.64,1.76c1.06,1.18,2.12,2.34,3.12,3.52,2,2.36,4,4.79,5.78,7.26a135.42,135.42,0,0,1,10.15,15.61,94.06,94.06,0,0,1,11.93,36.38v1.66a23.22,23.22,0,0,1,0,2.36,21.05,21.05,0,0,1-.8,4.23,27.86,27.86,0,0,1-2.94,6.48,45,45,0,0,1-7,8.64,111.49,111.49,0,0,1-14.83,11.87c-5,3.47-10,6.61-15.08,9.66-2.56,1.51-5.08,3-7.65,4.49l-3.88,2.15c-1.32.74-2.53,1.44-4,2.22l-10.4-23.22c1.08-.37,2.42-.88,3.63-1.38l3.72-1.58c2.47-1.08,4.94-2.17,7.35-3.37a155.44,155.44,0,0,0,14-7.66,77.67,77.67,0,0,0,11.91-8.81,24.49,24.49,0,0,0,3.79-4.34,7.68,7.68,0,0,0,.6-1.18h0v-.12a62.31,62.31,0,0,0-1.13-7,59.24,59.24,0,0,0-2.08-6.92,72.9,72.9,0,0,0-6.4-13.29,93.13,93.13,0,0,0-9-12.33c-1.76-1.92-3.52-3.84-5.28-5.6-1-.85-1.8-1.78-2.72-2.61l-1.37-1.21-.67-.57-.55-.42Z" fill="#fff" opacity="0.8" style="isolation:isolate"/><g id="b49def65-5c78-4b8f-a6cd-be65dcf87153" data-name="freepik--Flower--inject-125"><path d="M83,529.08h0a.73.73,0,0,1-.73-.72h0c.25-27.63-8.61-132.75-30-164a.72.72,0,0,1,.18-1,.74.74,0,0,1,1,.18c21.86,32,30.41,136.09,30.21,164.79A.72.72,0,0,1,83,529.08Z" fill="#0071f2"/><path d="M90.77,521.44H75.26c-12.26,33.57-7,105.77,0,105.77H90.77C97.77,627.21,103,555,90.77,521.44Z" fill="#2f2e41"/><path d="M58.49,378.11c3.29,2.32,3.68,4.94,2.35,6.8s-3.87,2.47-7.21.15-5.81-9.2-5.81-9.2S55.14,375.79,58.49,378.11Z" fill="#0071f2"/><path d="M78.24,409.39c-1.1,3.92-3.41,5.09-5.66,4.45S69,411,70.08,407.09s6.81-8.48,6.81-8.48S79.34,405.49,78.24,409.39Z" fill="#0071f2"/><path d="M72.86,435.45c2.78,2.95,2.62,5.54.92,7.13s-4.28,1.65-7.08-1.3-3.82-10.21-3.82-10.21S70.06,432.51,72.86,435.45Z" fill="#0071f2"/><path d="M88.78,482.24c-1.65,3.74-4,4.61-6.19,3.69s-3.2-3.29-1.65-7,7.94-7.56,7.94-7.56S90.38,478.52,88.78,482.24Z" fill="#0071f2"/><path d="M47,356.18c-2.68-2.53,3.29-9.88,7.43-9.7,2.14.14,1.64,3.17,1.77,5.68s-.29,4.84-3.63,5.47S48.24,357.45,47,356.18Z" fill="#0071f2"/><path d="M47,356.18c-2.68-2.53,3.29-9.88,7.43-9.7,2.14.14,1.64,3.17,1.77,5.68s-.29,4.84-3.63,5.47S48.24,357.45,47,356.18Z" opacity="0.2" style="isolation:isolate"/><path d="M53.45,353.12c-.25-3.69-9.88-3.75-12.2-.46-1.27,1.74,2.76,2.12,4,4.34s3.18,3.51,5.8,1.34S53.56,354.88,53.45,353.12Z" fill="#0071f2"/><path d="M56.41,355.93c-.33-4.93-12.92-4.93-16.1-.6-1.65,2.28,1.79,4.37,4.28,6.58s5.17,3.77,8.63.91S56.56,358.26,56.41,355.93Z" fill="#407bff"/><path d="M56.41,355.93c-.33-4.93-12.92-4.93-16.1-.6-1.65,2.28,1.79,4.37,4.28,6.58s5.17,3.77,8.63.91S56.56,358.26,56.41,355.93Z" opacity="0.2" style="isolation:isolate"/><path d="M47.85,360c-3.54-3.29,4.41-13.17,9.88-12.79,2.81.16-.17,4.59,1.05,7.68s.91,6.19-3.51,7S49.55,361.55,47.85,360Z" fill="#407bff"/><path d="M56.41,355.93c-.33-4.93-12.92-4.93-16.1-.6-1.65,2.28,1.79,4.37,4.28,6.58s5.17,3.77,8.63.91S56.56,358.26,56.41,355.93Z" fill="#0071f2"/><path d="M56.41,355.93c-.33-4.93-12.92-4.93-16.1-.6-1.65,2.28,1.79,4.37,4.28,6.58s5.17,3.77,8.63.91S56.56,358.26,56.41,355.93Z" opacity="0.2" style="isolation:isolate"/><path d="M47.85,360c-3.54-3.29,4.41-13.17,9.88-12.79,2.81.16-.17,4.59,1.05,7.68s.91,6.19-3.51,7S49.55,361.55,47.85,360Z" fill="#0071f2"/><path d="M48.77,365.53c-4.08-3.85,5.07-15.09,11.26-14.72,3.3.2,2.57,4.79,2.7,8.63s-.44,7.34-5.51,8.23S50.7,367.33,48.77,365.53Z" fill="#0071f2"/><path d="M48.77,365.53c-4.08-3.85,5.07-15.09,11.26-14.72,3.3.2,2.57,4.79,2.7,8.63s-.44,7.34-5.51,8.23S50.7,367.33,48.77,365.53Z" opacity="0.2" style="isolation:isolate"/><path d="M58.6,360.91c-.36-5.6-14.82-5.72-18.52-.71-1.91,2.63,4.2,3.29,6,6.58s4.84,5.34,8.81,2S58.78,363.56,58.6,360.91Z" fill="#0071f2"/></g></svg>